<?xml version="1.0" encoding="UTF-8" standalone="no"?>
<!-- Created with Inkscape (http://www.inkscape.org/) -->

<svg
   width="210mm"
   height="297mm"
   viewBox="0 0 210 297"
   version="1.1"
   id="svg15618"
   xml:space="preserve"
   inkscape:version="1.2.1 (9c6d41e410, 2022-07-14)"
   sodipodi:docname="beehive.svg"
   inkscape:export-filename="..\beehive.png"
   inkscape:export-xdpi="30.172058"
   inkscape:export-ydpi="30.172058"
   xmlns:inkscape="http://www.inkscape.org/namespaces/inkscape"
   xmlns:sodipodi="http://sodipodi.sourceforge.net/DTD/sodipodi-0.dtd"
   xmlns="http://www.w3.org/2000/svg"
   xmlns:svg="http://www.w3.org/2000/svg"><sodipodi:namedview
     id="namedview15620"
     pagecolor="#ffffff"
     bordercolor="#999999"
     borderopacity="1"
     inkscape:showpageshadow="0"
     inkscape:pageopacity="0"
     inkscape:pagecheckerboard="0"
     inkscape:deskcolor="#d1d1d1"
     inkscape:document-units="mm"
     showgrid="false"
     inkscape:zoom="0.72515432"
     inkscape:cx="396.46733"
     inkscape:cy="561.25984"
     inkscape:window-width="1920"
     inkscape:window-height="1017"
     inkscape:window-x="-8"
     inkscape:window-y="-8"
     inkscape:window-maximized="1"
     inkscape:current-layer="layer1" /><defs
     id="defs15615" /><g
     inkscape:label="Layer 1"
     inkscape:groupmode="layer"
     id="layer1"><rect
       style="fill:#949494;fill-opacity:0.564014;stroke:#000000;stroke-width:0.26493611;stroke-opacity:1;stroke-dasharray:none"
       id="rect15741"
       width="83.918915"
       height="83.918915"
       x="25.540541"
       y="60.93243" /><g
       id="g5503"
       transform="matrix(3.7705771,0,0,3.7705771,-312.72586,-576.67316)"><path
         id="path5505"
         sodipodi:nodetypes="cccccczc"
         style="fill:#d5b807;fill-rule:evenodd;stroke:#000000;stroke-width:0.4"
         d="m 93.318,183.26 c -0.78,-0.3 -1.262,2.14 -0.78,2.82 1.765,2.04 5.735,2.27 5.735,2.27 l 4.377,0.04 c 0,0 4.55,-0.07 6.21,-2.38 0.38,-0.47 0.54,-3.14 -0.61,-2.78 -2.24,1.73 -3.64,1.65 -7.33,1.73 -3.69,0.08 -6.47,-0.47 -7.602,-1.7 z" /><path
         id="path5507"
         sodipodi:nodetypes="cccccczc"
         style="fill:#af9705;fill-rule:evenodd"
         d="m 93.178,185.3 c -0.697,-0.26 -0.917,0.42 -0.492,0.81 1.677,1.84 5.511,2.18 5.511,2.18 l 4.493,0.01 c 0,0 4.75,-0.15 6.11,-2.38 0.28,-0.35 0.23,-1.01 -0.39,-0.76 -1.71,1.58 -3.74,2.18 -7.53,2.2 -3.789,0.02 -6.645,-0.88 -7.702,-2.06 z" /><path
         id="path5509"
         sodipodi:nodetypes="cccccczc"
         style="fill:#d5b807;fill-rule:evenodd;stroke:#000000;stroke-width:0.4"
         d="m 94.192,180.82 c -0.697,-0.26 -1.173,2.03 -0.742,2.63 1.712,1.5 5.226,1.57 5.226,1.57 l 3.874,0.03 c 0,0 3.52,0.35 5.79,-1.8 0.34,-0.41 0.18,-2.82 -0.85,-2.5 -2,1.5 -3.19,1.5 -6.48,1.57 -3.3,0.07 -5.807,-0.43 -6.818,-1.5 z" /><path
         id="path5511"
         sodipodi:nodetypes="cccccczc"
         style="fill:#d5b807;fill-rule:evenodd;stroke:#000000;stroke-width:0.4"
         d="m 94.871,178.63 c -0.621,-0.23 -0.951,1.81 -0.567,2.34 1.526,1.34 4.657,1.4 4.657,1.4 l 3.459,0.03 c 0,0 3.13,0.31 5.15,-1.6 0.3,-0.37 0.19,-2.57 -0.72,-2.28 -1.79,1.34 -2.91,1.35 -5.85,1.4 -2.934,0.06 -5.228,-0.34 -6.129,-1.29 z" /><path
         id="path5513"
         sodipodi:nodetypes="cccccczc"
         style="fill:#d5b807;fill-rule:evenodd;stroke:#000000;stroke-width:0.4"
         d="m 95.632,176.66 c -0.562,-0.22 -1.026,1.57 -0.679,2.04 1.379,1.21 4.21,1.27 4.21,1.27 l 3.127,0.02 c 0,0 2.83,0.28 4.66,-1.44 0.27,-0.34 0.03,-2.17 -0.79,-1.91 -1.62,1.21 -2.5,1.12 -5.15,1.18 -2.66,0.05 -4.564,-0.31 -5.378,-1.16 z" /><path
         id="path5515"
         sodipodi:nodetypes="cccccczc"
         style="fill:#d5b807;fill-rule:evenodd;stroke:#000000;stroke-width:0.4"
         d="m 96.265,174.87 c -0.493,-0.19 -0.884,1.45 -0.579,1.86 1.212,1.05 3.699,1.1 3.699,1.1 l 2.745,0.02 c 0,0 2.49,0.24 4.09,-1.25 0.24,-0.29 0.15,-1.88 -0.57,-1.66 -1.42,1.05 -2.25,0.97 -4.58,1.02 -2.335,0.05 -4.089,-0.35 -4.805,-1.09 z" /><path
         id="path5517"
         sodipodi:nodetypes="cccccczc"
         style="fill:#d5b807;fill-rule:evenodd;stroke:#000000;stroke-width:0.4"
         d="m 96.904,173.77 c -0.435,-0.14 -0.825,1.02 -0.556,1.33 1.068,0.77 3.463,0.84 3.463,0.84 l 2.219,0.02 c 0,0 2.19,0.15 3.6,-0.97 0.21,-0.21 0,-1.42 -0.64,-1.26 -1.25,0.78 -1.87,0.78 -3.93,0.82 -2.055,0.03 -3.525,-0.23 -4.156,-0.78 z" /><path
         id="path5519"
         sodipodi:nodetypes="cccccczc"
         style="fill:#d5b807;fill-rule:evenodd;stroke:#000000;stroke-width:0.4"
         d="m 97.401,172.79 c -0.374,-0.1 -0.626,0.89 -0.395,1.12 0.916,0.58 2.797,0.61 2.797,0.61 l 2.077,0.01 c 0,0 1.88,0.13 3.1,-0.7 0.18,-0.16 0.04,-1.17 -0.51,-1.05 -1.07,0.58 -1.65,0.69 -3.42,0.72 -1.764,0.02 -3.108,-0.3 -3.649,-0.71 z" /><path
         id="path5521"
         sodipodi:nodetypes="cccccczc"
         style="fill:#d5b807;fill-rule:evenodd;stroke:#000000;stroke-width:0.4"
         d="m 97.783,172.12 c -0.329,-0.09 -0.521,0.66 -0.318,0.85 0.807,0.49 2.463,0.52 2.463,0.52 l 1.822,0.01 c 0,0 1.66,0.11 2.73,-0.59 0.16,-0.14 0.1,-0.88 -0.38,-0.78 -0.95,0.5 -1.49,-0.47 -3.04,-0.45 -1.554,0.02 -2.801,0.78 -3.277,0.44 z" /><path
         id="path5523"
         sodipodi:nodetypes="cc"
         style="fill:none;stroke:#000000;stroke-width:0.4"
         d="m 99.088,172.64 c 0.339,0.24 3.022,0.37 3.532,-0.03" /><path
         id="path5525"
         sodipodi:nodetypes="czcc"
         style="fill:#000000;fill-rule:evenodd;stroke:#000000;stroke-width:0.4"
         d="m 99.085,188.36 c 0.032,-1.94 0.789,-2.41 1.585,-2.42 0.8,-0.01 1.64,0.52 1.61,2.38 z" /><path
         id="path5527"
         sodipodi:nodetypes="cccccczc"
         style="fill:#af9705;fill-rule:evenodd"
         d="m 94.027,182.95 c -0.631,-0.18 -0.83,0.29 -0.445,0.55 1.518,1.26 4.99,1.49 4.99,1.49 l 4.068,0.01 c 0,0 3.48,0.17 5.53,-1.62 0.25,-0.24 0.21,-0.7 -0.35,-0.53 -1.55,1.08 -3.39,1.49 -6.82,1.51 -3.43,0.01 -6.015,-0.6 -6.973,-1.41 z" /><path
         id="path5529"
         sodipodi:nodetypes="cccccczc"
         style="fill:#af9705;fill-rule:evenodd"
         d="m 95.023,180.71 c -0.542,-0.14 -0.714,0.23 -0.383,0.44 1.305,0.98 4.287,1.16 4.287,1.16 l 3.493,0.01 c 0,0 2.99,0.13 4.75,-1.27 0.22,-0.19 0.19,-0.54 -0.3,-0.41 -1.33,0.84 -2.91,1.16 -5.86,1.17 -2.944,0.02 -5.164,-0.46 -5.987,-1.1 z" /><path
         id="path5531"
         sodipodi:nodetypes="cccccczc"
         style="fill:#af9705;fill-rule:evenodd"
         d="m 95.519,178.4 c -0.496,-0.13 -0.653,0.22 -0.35,0.42 1.194,0.94 3.924,1.12 3.924,1.12 h 3.197 c 0,0 2.74,0.13 4.35,-1.22 0.2,-0.18 0.17,-0.52 -0.28,-0.39 -1.21,0.81 -2.66,1.12 -5.36,1.13 -2.695,0.01 -4.728,-0.45 -5.481,-1.06 z" /><path
         id="path5533"
         sodipodi:nodetypes="cccccczc"
         style="fill:#af9705;fill-rule:evenodd"
         d="m 96.219,176.45 c -0.434,-0.11 -0.57,0.19 -0.306,0.36 1.042,0.81 3.425,0.96 3.425,0.96 h 2.792 c 0,0 2.39,0.11 3.79,-1.04 0.18,-0.16 0.15,-0.45 -0.24,-0.34 -1.06,0.69 -2.32,0.96 -4.67,0.97 -2.36,0.01 -4.134,-0.39 -4.791,-0.91 z" /><path
         id="path5535"
         sodipodi:nodetypes="cccccczc"
         style="fill:#af9705;fill-rule:evenodd"
         d="m 96.752,174.75 c -0.39,-0.11 -0.514,0.17 -0.275,0.32 0.938,0.73 3.084,0.86 3.084,0.86 l 2.519,0.01 c 0,0 2.15,0.1 3.41,-0.94 0.16,-0.14 0.14,-0.41 -0.21,-0.31 -0.96,0.63 -2.09,0.87 -4.22,0.87 -2.118,0.01 -3.716,-0.34 -4.308,-0.81 z" /><path
         id="path5537"
         sodipodi:nodetypes="cccccczc"
         style="fill:#af9705;fill-rule:evenodd"
         d="m 97.341,173.67 c -0.336,-0.07 -0.374,0.12 -0.169,0.23 0.808,0.52 2.654,0.54 2.654,0.54 l 2.164,0.01 c 0,0 1.85,0.06 2.94,-0.67 0.14,-0.1 0.11,-0.28 -0.19,-0.21 -0.82,0.44 -1.8,0.61 -3.62,0.61 -1.827,0.01 -3.27,-0.18 -3.779,-0.51 z" /><path
         id="path5539"
         sodipodi:nodetypes="cccccczc"
         style="fill:#af9705;fill-rule:evenodd"
         d="m 97.74,172.8 c -0.295,-0.06 -0.328,0.1 -0.148,0.19 0.707,0.41 2.325,0.44 2.325,0.44 h 1.903 c 0,0 1.62,0.05 2.57,-0.54 0.12,-0.08 0.1,-0.23 -0.16,-0.18 -0.72,0.36 -1.58,0.5 -3.18,0.5 -1.6,0.01 -2.864,-0.14 -3.31,-0.41 z" /><path
         id="path5541"
         sodipodi:nodetypes="cccccczc"
         style="fill:#af9705;fill-rule:evenodd"
         d="m 99.247,172.52 c -0.142,0.02 -0.125,0.08 -0.036,0.12 0.344,0.13 1.129,0.16 1.129,0.16 h 0.95 c 0,0 0.78,0.08 1.25,-0.21 0.06,-0.04 0.02,-0.08 -0.05,-0.11 -0.46,-0.04 -0.76,-0.19 -1.56,-0.19 -0.8,0.01 -1.466,0.23 -1.683,0.23 z" /></g></g></svg>
