<?xml version="1.0" encoding="UTF-8" standalone="no"?>
<svg
   xmlns:dc="http://purl.org/dc/elements/1.1/"
   xmlns:cc="http://creativecommons.org/ns#"
   xmlns:rdf="http://www.w3.org/1999/02/22-rdf-syntax-ns#"
   xmlns:svg="http://www.w3.org/2000/svg"
   xmlns="http://www.w3.org/2000/svg"
   xmlns:sodipodi="http://sodipodi.sourceforge.net/DTD/sodipodi-0.dtd"
   xmlns:inkscape="http://www.inkscape.org/namespaces/inkscape"
   version="1.1"
   x="0"
   y="0"
   width="1433.0688"
   height="1433.5439"
   viewBox="0 0 1433.0688 1433.5439"
   id="svg43179"
   inkscape:version="0.91 r13725"
   sodipodi:docname="genericwinnerremix.svg">
  <metadata
     id="metadata43450">
    <rdf:RDF>
      <cc:Work
         rdf:about="">
        <dc:format>image/svg+xml</dc:format>
        <dc:type
           rdf:resource="http://purl.org/dc/dcmitype/StillImage" />
        <dc:title></dc:title>
      </cc:Work>
    </rdf:RDF>
  </metadata>
  <defs
     id="defs43448">
    <clipPath
       id="Clip_1">
      <path
         id="path44174"
         d="m 0.06,0.924 963.596,0 0,999.076 -963.596,0 z"
         inkscape:connector-curvature="0" />
    </clipPath>
  </defs>
  <sodipodi:namedview
     pagecolor="#ffffff"
     bordercolor="#666666"
     borderopacity="1"
     objecttolerance="10"
     gridtolerance="10"
     guidetolerance="10"
     inkscape:pageopacity="0"
     inkscape:pageshadow="2"
     inkscape:window-width="1916"
     inkscape:window-height="1035"
     id="namedview43446"
     showgrid="false"
     showguides="true"
     inkscape:guide-bbox="true"
     fit-margin-top="0"
     fit-margin-left="0"
     fit-margin-right="0"
     fit-margin-bottom="0"
     inkscape:zoom="0.38183766"
     inkscape:cx="446.72848"
     inkscape:cy="704.62022"
     inkscape:window-x="4"
     inkscape:window-y="1"
     inkscape:window-maximized="1"
     inkscape:current-layer="g45502" />
  <g
     id="Layer_1"
     transform="translate(-924.87645,817.30009)">
    <g
       transform="scale(1.0566235,0.94641091)"
       style="font-style:normal;font-weight:normal;font-size:12.32652187px;line-height:125%;font-family:sans-serif;letter-spacing:0px;word-spacing:0px;fill:#000000;fill-opacity:1;stroke:none;stroke-width:1px;stroke-linecap:butt;stroke-linejoin:miter;stroke-opacity:1"
       id="text43996" />
    <g
       id="g45502">
      <g
         id="g45559">
        <path
           sodipodi:type="star"
           style="opacity:1;fill:#ffe900;fill-opacity:1;fill-rule:evenodd;stroke:none;stroke-width:0.30000001;stroke-linecap:round;stroke-linejoin:round;stroke-miterlimit:4;stroke-dasharray:none;stroke-opacity:1"
           id="path45500"
           sodipodi:sides="47"
           sodipodi:cx="1642.0485"
           sodipodi:cy="-100.36578"
           sodipodi:r1="717.18848"
           sodipodi:r2="358.59421"
           sodipodi:arg1="0.86217005"
           sodipodi:arg2="0.92901245"
           inkscape:flatsided="false"
           inkscape:rounded="0.04"
           inkscape:randomized="0"
           d="m 2108.7885,444.1643 c -10.9391,9.3764 -240.5355,-265.91048 -252.0765,-257.28567 -11.5409,8.62481 187.4246,306.80276 175.3333,314.63746 -12.0913,7.83469 -202.947,-295.59814 -215.5345,-288.58854 -12.5876,7.00959 144.8594,329.04655 131.8317,335.19973 -13.0276,6.15318 -161.7367,-320.01084 -175.1463,-314.74155 -13.4095,5.26929 99.7093,345.4185 85.9778,349.78037 -13.7316,4.36186 -117.6404,-338.71294 -131.6327,-335.27799 -13.9922,3.43496 52.7799,355.62646 38.5895,358.11916 -14.1905,2.49271 -71.4448,-351.3707 -85.77,-349.83137 -14.3252,1.53932 4.9086,359.48824 -9.4875,360.0673 -14.396,0.57907 -23.9741,-357.75824 -38.3767,-358.14201 -14.4026,-0.38378 -43.0503,356.93494 -57.3951,355.59004 -14.3448,-1.34491 23.9243,-357.76158 9.7014,-360.06161 -14.223,-2.30003 -90.241,348.01215 -104.2785,344.76727 -14.0376,-3.24488 71.3957,-351.38065 57.6063,-355.55589 -13.7895,-4.17523 -135.8213,332.87906 -149.3011,327.79212 -13.4798,-5.08695 117.5932,-338.72933 104.4833,-344.70527 -13.1099,-5.97594 -178.9779,311.80574 -191.6593,304.9675 -12.6815,-6.83824 161.6921,-320.03337 149.4957,-327.70337 -12.1964,-7.67 -218.9406,285.16823 -230.5974,276.70074 -11.6569,-8.4675 202.9057,-295.62642 191.8404,-304.85361 -11.0653,-9.22718 -254.9962,253.4419 -265.4205,243.49624 -10.4243,-9.94566 240.4984,-265.944 230.7617,-276.56371 -9.7367,-10.61971 -286.5015,217.19289 -295.5071,205.94655 -9.0057,-11.24634 273.7994,-231.51581 265.5651,-243.33854 C 1339.5571,92.756917 1034.8973,281.64771 1027.471,269.30138 1020.0447,256.95506 1329.6855,76.345181 1323.1004,63.530405 1316.5154,50.715628 989.39716,197.31386 983.68273,184.08786 977.96831,170.86187 1308.9193,33.134567 1304.101,19.556427 1299.2828,5.9782878 955.54363,107.6679 951.64305,93.798257 947.74246,79.928614 1294.0978,-12.458364 1291.1323,-26.557565 1288.1668,-40.656765 933.9408,14.309578 931.92366,0.04379047 929.90652,-14.221997 1285.4855,-59.620005 1284.4257,-73.988666 c -1.0598,-14.368661 -359.45153,-7.106462 -359.54923,-21.513821 -0.0977,-14.407363 358.35953,-12.006273 359.22433,-26.387983 0.8649,-14.38171 -355.29705,-54.95325 -353.47356,-69.24508 1.82348,-14.29183 356.76236,35.86551 359.53636,21.72739 2.774,-14.13812 -344.8024,-101.8194 -341.09027,-115.74067 3.71213,-13.92126 348.79877,83.09727 353.43237,69.45504 4.6337,-13.64224 -328.15466,-146.86858 -322.62013,-160.17085 5.53454,-13.30228 334.61083,128.84615 341.02143,115.94325 6.4107,-12.9029 -305.651,-189.29688 -298.3929,-201.74279 7.2582,-12.4459 314.4518,172.29578 322.525,160.36246 8.0733,-11.93332 -277.6931,-228.34717 -268.8408,-239.71461 8.8523,-11.36744 288.6812,212.67078 298.273,201.91999 9.5918,-10.75078 -244.7797,-263.32261 -234.4912,-273.40873 10.2884,-10.08611 257.7592,249.25067 268.6983,239.87427 10.9392,-9.3764 -207.4981,-293.59906 -195.9571,-302.22386 11.541,-8.62481 222.2375,281.38266 234.3288,273.54797 12.0912,-7.8347 -166.5139,-318.63621 -153.9263,-325.6458 12.5876,-7.0096 182.75,308.49338 195.7776,302.3402 13.0277,-6.15318 -122.558,-337.98729 -109.1485,-343.25658 13.4096,-5.26929 140.0013,330.09904 153.7328,325.73718 13.7316,-4.36187 -76.4152,-351.30699 -62.423,-354.74195 13.9923,-3.43495 94.7542,345.81406 108.9446,343.32136 14.1904,-2.49271 -28.9088,-358.3576 -14.5835,-359.89693 14.3252,-1.53932 47.8162,355.35803 62.2122,354.77896 14.3961,-0.57906 19.1136,-359.01331 33.5162,-358.62953 14.4025,0.38377 0.025,358.56061 14.3697,359.90552 14.3448,1.34491 66.7948,-353.26242 81.0178,-350.9624 14.2229,2.30003 -47.7667,355.36469 -33.7292,358.60957 14.0375,3.24488 113.2841,-341.20756 127.0736,-337.03233 13.7894,4.17524 -94.706,345.82727 -81.2262,350.91422 13.4798,5.08694 157.7518,-323.06384 170.8617,-317.08791 13.1099,5.97594 -139.9552,330.11855 -127.2737,336.95679 12.6815,6.83823 199.4045,-299.15504 211.6009,-291.48504 12.1964,7.66999 -182.7069,308.51885 -171.0501,316.98635 11.6569,8.4675 237.4988,-269.9078 248.5641,-260.68062 11.0653,9.22719 -222.1983,281.41364 -211.774,291.3593 10.4243,9.94566 271.3549,-235.84406 281.0916,-225.22435 9.7366,10.61972 -257.7245,249.28659 -248.7189,260.53293 9.0056,11.24634 300.3686,-197.57167 308.603,-185.74894 8.2343,11.82273 -288.6516,212.71101 -281.2253,225.05734 7.4263,12.34632 324.0223,-155.77362 330.6074,-142.95884 6.585,12.81478 -314.4277,172.3396 -308.7133,185.5656 5.7144,13.22599 341.8938,-111.19578 346.7121,-97.61764 4.8183,13.57814 -334.5928,128.89279 -330.6923,142.76244 3.9006,13.86964 353.6643,-64.63365 356.6297,-50.53445 2.9655,14.0992 -348.7871,83.14589 -346.77,97.41167 2.0172,14.26579 359.1235,-16.91812 360.1833,-2.54946 1.0598,14.36867 -356.7574,35.91524 -356.6597,50.3226 0.098,14.407359 358.1742,31.099304 357.3093,45.481016 -0.8648,14.381712 -358.3612,-11.956321 -360.1847,2.335511 -1.8234,14.291832 350.8332,78.561763 348.0592,92.699884 -2.774,14.138121 -353.5701,-59.614517 -357.2822,-45.6932505 -3.7121,13.9212662 337.2316,124.6222795 332.598,138.2645195 -4.6337,13.64224 -342.4696,-106.20889 -348.0041,-92.906615 -5.5346,13.302275 317.6121,168.458915 311.2015,181.361825 -6.4107,12.9029 -325.2576,-150.907966 -332.5158,-138.462062 -7.2582,12.445904 292.3249,209.289402 284.2516,221.222722 -8.0732,11.93331 -302.2414,-192.91408 -311.0937,-181.54665 -8.8523,11.36744 261.8211,246.38511 252.2293,257.13589 -9.5918,10.75078 -273.8317,-231.47764 -284.1202,-221.39152 -10.2884,10.08611 226.6451,279.08406 215.7059,288.46046 z"
           inkscape:transform-center-x="0.63834995"
           inkscape:transform-center-y="-0.16250682" />
        <g
           id="g45298">
          <g
             transform="matrix(0.91384068,0,0,0.90871977,1200.8075,-458.8872)"
             id="g44177"
             clip-path="url(#Clip_1)">
            <path
               style="fill:#372b1b;fill-opacity:1"
               d="m 890.57812,-480.8418 c -25.13263,0.15062 -50.89612,3.84592 -77.26367,11.19922 -85.621,23.878 -145.11156,77.42675 -177.22656,160.84375 -6.083,15.803 -8.44244,32.7395 -15.52344,48.1875 -1.173,2.557 -2.01415,5.27322 -2.91015,7.94922 -8.268,24.689 -14.25743,49.86653 -16.35742,75.89453 -0.13001,1.605 0.75887,4.33677 -1.57813,4.75977 -7.865,1.426 -13.77575,6.15625 -19.59375,11.40625 -1.36,-2.883 -2.44472,-5.30869 -3.63672,-7.67969 -5.067,-10.084 -11.04281,-19.43753 -21.25781,-25.14453 -10.943,-6.114 -21.81899,-2.30617 -26.58399,9.29883 -1.029,2.507 -1.67317,5.172 -2.45117,7.625 -2.997,-1.225 -5.68529,-2.59146 -8.52929,-3.43946 -11.735,-3.498 -21.09943,2.92027 -22.10743,15.19727 -0.409,4.975 -0.54189,10.01225 0.78711,14.90625 0.805,2.962 0.6486,4.18203 -3.1914,4.04101 -10.504,-0.386 -17.467,5.50046 -18.25,15.06446 -0.401,4.91 1.00895,9.577 3.62695,13.75 1.285,2.049 1.71911,3.27431 -0.46289,5.32031 -3.718,3.486 -4.85838,8.10648 -3.85938,13.271485 1.37,7.084 5.34799,12.443734 10.70899,16.927734 11.778,9.849 25.5318,16.094235 39.7168,21.490235 10.55,4.013 21.9639,6.453515 31.6289,11.978515 46.622,26.654 92.7791,54.1226262 139.1211,81.265625 1.732,1.015 2.82142,1.841844 2.10742,4.214844 -1.485,4.934 0.75419,8.157688 5.11719,10.554688 18.51697,10.171 37.3144,19.725812 57.5664,26.007812 3.128,0.97 3.1762,2.242063 2.4082,4.914063 -15.17286,48.028669 -22.93109,83.767309 -33.93554,125.458989 -1.784,6.77299 -0.22239,9.78685 6.34961,12.38085 3.242,1.279 6.5848,2.30639 9.79883,3.65039 0.90399,0.378 2.8149,0.10825 2.5039,1.78126 -0.4,2.15 -2.13619,0.97832 -3.24219,0.73632 -6.815,-1.494 -13.47228,-1.48459 -20.11328,1.06641 -26.965,10.363 -46.85653,27.718 -54.76953,56.375 -5.681,20.576 4.33702,37.29673 24.79102,42.05273 9.281,2.158 18.59825,1.42905 27.40625,-2.37695 2.966,-1.281 4.26861,-0.56236 5.84961,1.93164 5.461,8.618 11.82662,16.50263 19.76562,23.01563 16.594,13.614 35.51345,13.96806 52.56445,0.91406 6.666,-5.104 12.40166,-11.18069 16.97266,-18.17969 2.451,-3.753 5.03391,-5.56536 9.62891,-4.69336 6.252,1.187 10.00778,-1.63106 12.92578,-7.41406 8.532,-16.908 17.73119,-33.47844 26.49219,-50.27344 1.509,-2.892 2.87185,-3.65853 6.13085,-2.64453 2.94401,0.915 3.32296,2.80495 3.75196,5.12695 2.75,14.881 5.47583,29.76582 8.29883,44.63282 1.338,7.044 5.42695,9.67167 12.25195,7.26367 3.809,-1.343 4.75289,-0.30049 5.46289,3.22851 6.171,30.643 12.50733,61.25277 18.73633,91.88477 2.285,11.238 5.2259,22.42511 6.3789,33.78711 1.044,10.294 1.85411,20.55925 5.03711,30.40625 6.268,19.389 17.73896,33.74639 38.75196,38.27539 6.418,1.383 12.97378,0.79062 19.42578,0.51562 19.32897,-0.825 31.99777,-15.70595 29.80277,-34.75195 -1.496,-12.993 -8.033,-23.80473 -15.418,-34.17773 -1.655,-2.324 -3.1513,-4.57671 -3.4043,-7.59571 -1.003,-11.941 -2.15644,-23.87073 -3.27344,-35.80273 -2.84,-30.323 -5.6615,-60.64784 -8.5625,-90.96484 -0.579,-6.059 -0.72373,-6.04457 5.57226,-6.10157 0.66603,-0.006 1.33405,0.0243 1.99805,-0.0137 6.50403,-0.371 9.33273,-3.36773 8.92973,-9.92773 -0.254,-4.143 -1.1473,-8.24667 -1.4473,-12.38868 -1.327,-18.27199 -8.31521,-35.48637 -8.28321,-54.23437 0.0389,-23.38576 -2.15104,-46.78063 -3.78516,-70.16211 l -0.53711,-0.55469 c 4.0165,-12.13264 -11.6137,-81.210222 0.71485,-83.714841 26.78603,-4.741 50.31713,-17.64575 73.82813,-30.46875 2.891,-1.577 4.6519,-4.546578 3.7949,-7.517578 -1.17,-4.056 1.0121,-5.128656 3.7481,-6.722656 33.328,-19.409 66.7255,-38.7041717 99.8535,-58.451172 22.712,-13.538 45.3322,-26.98239 70.9082,-34.775391 11.755,-3.581997 22.7354,-9.360937 32.9004,-16.460937 6.204,-4.333 12.0139,-9.093625 15.0429,-16.265625 2.596,-6.143 3.2386,-12.60258 -1.7304,-17.76758 -2.617,-2.72 -1.9119,-4.16373 -0.5059,-6.92773 7.811,-15.365 0.133,-29.03077 -16.25,-27.88477 -3.127,0.219 -2.7114,-1.16644 -2.2324,-3.14844 1.263,-5.233 1.4926,-10.55671 0.9746,-15.88671 -1.21,-12.438 -10.8652,-18.82996 -22.6992,-15.00196 -2.741,0.887 -5.3304,2.24202 -8.0684,3.41602 -0.302,-1.018 -0.5635,-1.80642 -0.7695,-2.60742 -4.609,-17.916 -18.6526,-22.57836 -33.2246,-11.06836 -6.971,5.506 -11.5799,12.75792 -15.5059,20.54492 -1.439,2.853 -2.9074,5.69142 -4.3984,8.60742 -5.891,-4.578 -5.7878,-4.58878 -6.3828,-9.80078 -3.194,-27.969 -8.2044,-55.53411 -16.4825,-82.53711 -7.9239,-25.847 -19.8445,-50.03336 -30.4785,-74.69336 -16.639,-38.583 -42.2518,-71.13403 -76.2168,-95.83203 -52.1184,-37.89703 -108.1081,-57.42313 -167.63278,-57.06641 z m 78.00782,537.240238 c 6.89657,0.368808 4.53515,86.521482 4.53515,86.521482 l 1.21875,20.70508 -2.43554,52.37109 -221.66211,-23.14062 17.05078,-70.64063 8.52539,-23.140621 c 0,0 185.12409,-40.191103 192.43164,-42.626953 0.11418,-0.03806 0.22647,-0.05468 0.33594,-0.04883 z"
               transform="translate(-401.13718,481.77052)"
               id="path44179"
               inkscape:connector-curvature="0"
               sodipodi:nodetypes="sscccccccccccccccccccccccccccccccccsccccscccccccccccccccccccccccccccscscccccccccccccccsccssccccccssc" />
          </g>
          <path
             style="fill:#c97171;fill-opacity:1"
             d="m 1510.4777,-48.171588 c -0.4213,0.221727 -0.6398,0.261981 -0.68,0.367393 -7.1938,19.225783 -14.3604,38.4621599 -21.5788,57.6788569 -0.7274,1.9373901 0.2479,2.7027321 1.7402,3.4751431 13.7424,7.109824 27.5731,13.991246 42.3901,18.717498 2.6903,0.857831 3.6802,0.524388 4.3729,-2.349893 1.9803,-8.217553 4.2495,-16.3685 6.5414,-24.5088115 1.2949,-4.60175688 4.7862,-6.9048217 8.7404,-6.08061289 4.2649,0.88872794 6.4744,4.46141699 5.5277,9.40666999 -0.5666,2.9587914 -1.5353,5.8427274 -2.3203,8.7606264 -4.1639,15.484899 -8.3421,31.025042 -12.5314,46.60561 -12.1317,41.735908 -15.1712,58.978048 -26.1855,95.988848 -1.1514,3.45768 -0.045,4.44827 3.1699,5.56236 33.9803,11.77428 68.8183,19.71921 104.5723,23.70304 33.8614,3.77391 67.6427,3.70902 101.3506,-1.87779 3.5311,-0.58613 4.0107,-1.83562 3.816,-4.92164 -1.3305,-21.11319 -2.5546,-96.511307 -3.6375,-117.63722 -0.1298,-2.536237 -1.0066,-19.527598 -3.2181,-19.506698 2.3345,-10.20766 -0.7563,-21.925913 -0.9674,-27.332587 -0.1709,-5.109731 2.7094,-8.6686891 7.1269,-8.8049971 4.2411,-0.1299469 7.2642,2.8175271 7.4589,7.8927271 0.2312,6.021177 0.055,12.058257 0.055,18.231191 1.5416,-0.103594 2.3085,-0.06568 3.0378,-0.216531 19.4218,-3.994732 36.8418,-12.913078 54.2806,-21.802175 2.5159,-1.282203 1.4184,-2.812644 0.7943,-4.4992275 -5.4008,-14.5885872 -10.8373,-29.1628765 -16.1065,-43.7978085 -1.0427,-2.894272 -1.5994,-3.796944 -4.7137,-1.615108 -23.2902,16.315156 -49.4731,25.52229 -77.3891,30.0640716 -4.3097,0.700623 -6.806,2.2847769 -8.9956,6.12320918 -11.6268,20.37985822 -32.4522,29.53884522 -53.9969,23.96748422 -14.9395,-3.862968 -24.9832,-13.8850675 -32.4931,-26.7007424 -1.7692,-3.0178584 -3.8592,-4.4180538 -7.2733,-5.0796018 -16.4665,-3.1896068 -32.2474,-8.4854548 -47.3001,-15.9096958 -12.983,-6.403748 -24.8203,-14.484709 -35.5881,-23.903589 z"
             id="path44185"
             inkscape:connector-curvature="0"
             sodipodi:nodetypes="ccccccccccccccccccccccccccccccccccc" />
          <path
             id="path44181"
             d="m 1471.6635,-158.25998 c -2.9599,-17.70913 -3.585,-35.46279 -0.934,-53.26643 4.3792,-29.40617 12.8432,-57.43927 28.2916,-83.12696 12.2546,-20.37531 12.2099,-20.46437 34.949,-27.79774 21.4304,-6.91081 43.3105,-11.99237 65.5415,-15.6536 3.6791,-0.60612 5.9354,0.9796 8.5134,2.99605 35.0604,27.43061 74.8874,45.17518 117.6442,56.83678 28.0759,7.65779 56.6901,12.36586 85.7082,14.6004 2.4363,0.1872 3.8527,0.81149 4.666,3.22505 8.0619,23.91114 13.9005,48.23394 13.608,73.64719 -0.096,8.3057 -0.5894,16.61595 -1.8459,24.85258 -2.1695,0.13813 -2.7443,-1.63751 -3.511,-3.0333 -9.2718,-16.88402 -34.4262,-21.49577 -47.6266,-16.64866 -18.0639,6.63365 -28.564,29.18172 -21.8116,46.96355 2.7306,7.1907 6.3969,13.7771 12.2363,18.83685 12.399,10.74288 29.2895,11.19452 42.925,1.59208 2.2343,-1.57391 3.8527,-4.42547 7.222,-4.0638 -11.1177,31.704325 -30.8064,56.691393 -59.4919,74.464134 -22.7464,14.093335 -47.9593,21.117739 -74.3007,24.342785 -32.4441,3.972923 -64.71,2.820666 -96.4852,-5.263305 -47.3424,-12.043263 -82.1661,-39.248515 -101.9855,-84.300114 -0.6644,-1.51029 -1.1185,-3.11146 -1.6705,-4.67082 1.6915,-0.81149 2.896,0.42437 4.2092,1.04503 8.5873,4.06197 17.6152,5.76855 27.0798,4.91163 7.3263,-0.66246 13.3174,-4.28462 18.4075,-9.24441 18.9649,-18.48063 15.4987,-47.96314 -7.1682,-61.95015 -12.0782,-7.45332 -29.1323,-5.54683 -40.2702,4.55814 -4.2905,3.89204 -8.2721,8.03762 -10.7851,13.38271 -0.5913,1.25585 -1.0711,2.97697 -3.1153,2.76433"
             inkscape:connector-curvature="0"
             style="fill:#fef8ea" />
          <path
             id="path44187"
             d="m 1770.7297,-408.15792 c -7.127,-1.96102 -14.1645,-4.35913 -21.3948,-5.81217 -47.3744,-9.5252 -92.881,-5.57954 -135.0602,19.76738 -18.1342,10.89828 -32.5236,25.7722 -43.7903,43.59038 -1.6394,2.59349 -3.5101,4.0647 -6.6226,4.80258 -47.4704,11.2445 -92.1746,29.54157 -134.903,52.78753 -1.2136,-0.82148 -0.2787,-1.71929 -0.039,-2.35176 26.0636,-68.84825 74.6261,-114.13611 144.9954,-136.31796 25.6525,-8.0867 52.0113,-12.80205 78.9851,-11.64434 41.355,1.77655 80.3065,12.51489 116.3009,33.1819 0.6287,0.36167 1.2072,0.81058 1.8094,1.21769 -0.093,0.25989 -0.1874,0.51979 -0.2806,0.77877"
             inkscape:connector-curvature="0"
             style="fill:#61c96c;fill-opacity:1" />
          <path
             id="path44191"
             d="m 2001.7688,-112.05522 c -1.602,3.45677 -4.0146,5.48504 -6.5395,7.38517 -7.5693,5.699489 -15.7857,10.583858 -24.7879,13.254585 -30.9838,9.190792 -57.7877,26.425571 -85.2202,42.542625 -25.2522,14.836668 -50.6734,29.388906 -75.9384,44.2046734 -2.8,1.6420567 -3.8335,1.4557691 -4.9374,-1.6575048 -4.4934,-12.6711886 -8.9785,-25.3550986 -13.9846,-37.8290956 -1.7929,-4.466357 -0.4953,-6.470993 3.2579,-8.486534 14.0393,-7.536013 28.0759,-15.085657 41.9498,-22.916095 22.4851,-12.690271 44.4292,-26.258364 65.6842,-40.909654 6.512,-4.48908 7.1115,-6.5137 3.765,-13.53084 -4.4897,-9.41343 -5.5964,-19.34028 -4.996,-29.61245 0.2011,-3.43678 1.5179,-2.89336 3.6134,-1.56936 4.2036,2.6571 7.3582,6.28107 10.0266,10.38939 4.1306,6.35832 10.1464,6.47463 13.9324,-0.0691 3.6298,-6.27562 6.6857,-12.87837 10.0313,-19.31756 2.6784,-5.1579 5.9628,-9.82599 10.8089,-13.26459 2.7461,-1.94829 4.3206,-1.33127 5.2344,1.85016 1.019,3.544 0.3098,6.90536 -0.8654,10.20946 -1.5718,4.41729 -3.6526,8.60922 -5.8942,12.73389 -2.6922,4.95253 -1.7912,9.24532 2.2133,11.35082 3.9807,2.0946 7.5675,0.68609 10.5658,-4.02926 4.7904,-7.53329 10.8784,-13.77165 18.6734,-18.28435 2.8357,-1.64206 4.201,-1.44032 4.3006,2.39357 0.2558,9.76692 -4.3801,17.45469 -10.2926,24.50635 -2.6876,3.20597 -3.7257,6.2211 -1.5325,9.82871 2.0004,3.29048 5.791,4.19738 10.1171,2.20729 4.9521,-2.27817 9.6739,-5.05067 14.6105,-7.367 1.5224,-0.71425 3.7879,-2.18456 5.038,-0.5425 1.3077,1.71748 -0.4048,3.7103 -1.6148,5.20151 -3.6398,4.48817 -8.8825,6.76088 -13.7651,9.49976 -1.8862,1.05775 -3.7824,2.04643 -4.5318,4.21918 -1.0107,2.93062 -0.7722,5.74584 1.5261,8.00492 2.2426,2.20364 4.9823,2.88882 7.9568,1.59843 3.5183,-1.52665 7.0677,-2.70889 11.5949,-1.99464"
             inkscape:connector-curvature="0"
             style="fill:#fef8ea" />
          <path
             id="path44193"
             d="m 1282.4921,-111.98979 c 3.9194,-0.86783 7.18,0.23718 10.4333,1.50302 4.6907,1.82653 8.7884,0.54069 10.4552,-3.2305 1.6705,-3.77936 0.019,-7.64415 -4.3599,-10.09315 -3.7075,-2.07279 -7.531,-3.94838 -10.9012,-6.57549 -2.7169,-2.11914 -4.7904,-4.63175 -5.271,-8.46291 3.372,-0.86964 6.077,0.89691 8.8094,2.23909 3.8107,1.87287 7.4807,4.02926 11.3015,5.88032 3.8216,1.85288 7.5684,1.69476 10.1692,-2.00645 2.5889,-3.68395 1.2026,-6.80722 -1.5645,-10.14404 -5.8705,-7.07802 -10.5101,-14.79032 -10.0687,-24.59087 0.1581,-3.50675 1.2583,-3.78936 3.998,-2.24817 7.8682,4.42547 13.9261,10.692 18.7795,18.16804 3.2359,4.98614 6.872,6.44191 10.8628,4.1483 3.8984,-2.23999 4.603,-6.30197 1.9181,-11.47986 -2.5085,-4.83802 -5.1412,-9.63242 -6.4745,-14.95207 -0.9321,-3.72121 -1.8606,-8.41929 1.7564,-10.37304 2.7305,-1.47576 5.4346,2.3754 7.6232,4.59176 4.6725,4.73353 7.1545,10.81286 10.0943,16.6114 2.1174,4.17466 4.1333,8.42383 6.5778,12.40766 3.787,6.17294 9.8741,6.07752 13.7296,-0.0573 2.7004,-4.29552 6.0003,-7.98401 10.3209,-10.71926 2.1283,-1.34672 3.2871,-1.02685 3.3986,1.7402 0.4158,10.39303 -0.3391,20.53707 -5.2674,30.02865 -3.1135,5.99664 -2.3376,8.671 3.3529,12.61394 34.3549,23.801184 70.5302,44.593602 107.5782,63.898444 4.3499,2.267256 4.9348,4.043803 3.1592,8.452912 -4.9649,12.327692 -9.4153,24.86439 -13.8603,37.3920007 -1.103,3.1087304 -1.8377,3.9747403 -5.1805,2.0100882 -39.3774,-23.1432749 -78.944,-45.9684979 -118.2638,-69.2062799 -10.087,-5.961202 -21.3162,-8.651921 -31.9908,-12.907456 -11.72,-4.673546 -23.5122,-9.138995 -33.813,-16.622299 -2.8969,-2.1046 -5.8239,-4.24554 -7.3025,-8.01673"
             inkscape:connector-curvature="0"
             style="fill:#fef8ea" />
          <path
             id="path44195"
             d="m 1588.4925,-350.85769 c 12.8514,-17.07847 28.2907,-29.50158 46.7192,-38.23074 27.9361,-13.23187 57.6085,-16.94218 88.0339,-14.20239 38.6966,3.48404 72.7929,18.39794 101.8979,43.99113 19.1678,16.85493 31.7121,37.97449 38.1894,62.61715 0.1526,0.58249 0.2567,1.18225 0.3171,1.78109 0.029,0.28171 -0.099,0.57886 -0.1874,1.03049 -10.5667,-5.25876 -20.9927,-10.69018 -31.6225,-15.69268 -41.4829,-19.52294 -84.5431,-34.29145 -129.9061,-41.92924 -37.5123,-6.31651 -75.0291,-6.37376 -113.4415,0.63519"
             inkscape:connector-curvature="0"
             style="fill:#ddfbde;fill-opacity:1" />
          <path
             id="path44197"
             d="m 1757.4306,-323.0972 c 16.6155,5.23876 31.9378,10.96552 47.0253,17.32746 22.984,9.69059 45.2333,20.81605 66.7424,33.43726 3.8801,2.27725 6.3411,5.04248 7.9358,9.28802 9.7269,25.89488 15.7884,52.62305 19.1787,80.00823 0.4268,3.45223 0.2815,5.70404 -3.9404,7.02986 -5.6485,1.77382 -7.9486,6.97442 -8.6294,12.40675 -1.3854,11.05094 -0.711,22.04827 3.171,32.58578 1.2236,3.32319 0.5638,4.92345 -2.312,6.84993 -21.7083,14.54134 -44.1093,27.944953 -66.8621,40.785163 -0.6698,0.378028 -1.3342,0.748785 -2.408,0.02726 2.5241,-4.840751 5.2848,-9.630612 7.5621,-14.637658 2.6894,-5.913035 5.1029,-11.961475 7.339,-18.058985 0.891,-2.42992 1.8816,-3.22777 4.5893,-2.87792 22.1241,2.85429 39.0274,-11.14635 40.4183,-33.49995 0.4788,-7.7014 0.4313,-15.4128 -2.0434,-22.90428 -4.0784,-12.35041 -12.8083,-18.68783 -26.1056,-18.26709 -3.7806,0.11995 -4.7657,-0.83784 -4.9869,-4.62175 -1.1971,-20.45619 -5.5104,-40.35352 -11.8525,-59.81829 -0.8142,-2.49989 -1.3945,-4.0011 2.1457,-4.64356 3.7824,-0.68608 5.5909,-3.66396 5.3076,-7.38608 -0.2659,-3.49947 -2.3093,-5.94575 -5.9783,-6.43555 -3.6106,-0.48253 -7.0302,-0.81876 -9.1604,-4.54451 -0.9604,-1.68113 -3.4598,-1.73111 -5.3222,-2.32814 -23.3879,-7.49239 -42.9267,-21.08502 -60.5593,-37.70551 -0.307,-0.28988 -0.4661,-0.73333 -1.2547,-2.01644"
             inkscape:connector-curvature="0"
             style="fill:#dcae53" />
          <path
             id="path44199"
             d="m 1817.2396,-118.29994 c -3.1628,2.30906 -6.1355,4.95071 -9.5213,6.87356 -20.7524,11.789728 -42.8024,2.94698 -52.6418,-19.25668 -9.4865,-21.40853 -0.8151,-37.39291 16.0197,-49.28805 10.8884,-7.69323 23.206,-5.45505 34.9781,-1.37672 8.8926,3.08056 15.7985,8.75007 20.0534,17.31839 0.3874,0.77786 1.1103,1.39125 1.6778,2.08187 -1.8743,14.9439 -4.8717,29.61882 -10.5659,43.64763"
             inkscape:connector-curvature="0"
             style="fill:#ffceb4" />
          <path
             id="path44201"
             d="m 1617.475,203.62767 c -9.1978,17.18298 -18.4541,34.34052 -27.5295,51.59166 -1.241,2.35903 -2.6629,2.80612 -5.0471,2.48807 -21.7257,-2.90063 -42.1984,-9.84961 -62.1384,-18.64965 -2.5871,-1.14136 -2.8832,-2.61257 -2.5131,-4.92527 2.4829,-15.52729 6.2333,-30.7747 10.1372,-45.99212 0.647,-2.52079 1.5591,-3.38498 4.392,-2.51806 24.426,7.47967 49.3455,12.80022 74.6315,16.45146 2.4007,0.34713 4.8077,0.65973 7.2065,1.02322 0.2715,0.0409 0.5091,0.30624 0.8609,0.53069"
             inkscape:connector-curvature="0"
             style="fill:#579cd7" />
          <path
             id="path44203"
             d="m 1471.6635,-158.25998 c 4.6295,-8.64284 10.4817,-16.11342 19.0152,-21.43579 14.5008,-9.04449 35.4433,-5.55773 45.4544,8.1912 5.8267,8.00127 10.2944,16.57595 10.6335,26.95626 0.4276,13.09465 -6.3997,22.33815 -15.3233,30.51118 -12.7015,11.63252 -33.6275,9.07084 -48.1375,0.30987 -6.1255,-14.26418 -9.9234,-29.12901 -11.6423,-44.53272"
             inkscape:connector-curvature="0"
             style="fill:#ffceb4" />
          <path
             id="path44205"
             d="m 1421.522,-168.11141 c -0.4542,10.41393 -0.3976,20.7706 3.4762,30.69928 3.5265,10.36122 5.0938,21.25677 8.7208,31.59255 0.4487,1.27675 0.6698,2.64619 -0.4058,3.81844 -10.7942,-5.21787 -20.4261,-12.30407 -30.4802,-18.71236 -1.1725,-0.74788 -1.3625,-1.88196 -1.6175,-3.08419 -1.2236,-5.76947 -2.2188,-11.57346 -2.7077,-17.45106 -3.5156,-42.23002 4.4093,-82.53538 20.3156,-121.59397 2.8731,-7.05621 6.6034,-12.53488 13.894,-15.52366 4.9923,-2.04553 9.2298,-5.70949 14.5246,-7.23977 1.5133,3.08783 -0.5117,5.5759 -1.5892,8.10123 -6.9598,16.32243 -12.8001,33.00016 -17.2286,50.19405 -5.0079,19.44388 -6.8767,39.20399 -6.9022,59.19946"
             inkscape:connector-curvature="0"
             style="fill:#ecd5a7;fill-opacity:1" />
          <path
             id="path44207"
             d="m 1783.0858,-281.7032 c -21.7778,-2.60803 -43.0794,-7.43878 -64.0639,-13.70168 -31.9717,-9.54246 -62.0443,-23.10874 -89.5701,-42.02829 -1.2337,-0.84783 -2.4208,-1.76201 -4.211,-3.07056 10.5083,-1.37217 20.4454,-1.55664 30.3441,-1.11864 23.5771,1.04503 46.8864,4.18375 69.8558,9.70695 2.3787,0.57158 4.1196,1.65205 5.6759,3.43132 15.6778,17.92995 33.3122,33.59356 53.9019,45.81311 0.081,1.75474 -1.0015,1.21133 -1.9327,0.96779"
             inkscape:connector-curvature="0"
             style="fill:#dcae53" />
          <path
             id="path44209"
             d="m 1648.1618,205.94945 c 20.2379,0.42801 40.4721,0.72243 60.6278,-1.69476 5.431,-0.65156 10.9268,-1.07047 16.2453,-2.25363 3.7495,-0.8342 4.6085,0.43437 5.3241,3.73302 2.5003,11.51803 4.8406,23.05877 6.8593,34.67221 0.5538,3.18506 0.014,4.13921 -3.4333,4.25917 -25.3902,0.88418 -50.7218,2.45808 -75.5299,8.4838 -2.6126,0.6352 -3.425,-0.32623 -3.8728,-2.80067 -2.259,-12.48854 -4.7365,-24.938 -7.0339,-37.42017 -0.4286,-2.32905 -1.1998,-4.34914 -2.9581,-5.95757 0.6854,-2.42992 2.3989,-1.10228 3.7715,-1.0214"
             inkscape:connector-curvature="0"
             style="fill:#579cd7" />
          <path
             id="path44211"
             d="m 1715.6242,384.26753 c -5.5845,0.27807 -10.8592,-0.44527 -16.1539,-1.02685 -2.7708,-0.30352 -4.1891,-1.40034 -4.7639,-4.25645 -4.4742,-22.22001 -9.0406,-44.42185 -13.7076,-66.60279 -0.6644,-3.15508 0.1782,-4.14286 3.3712,-4.30734 13.0834,-0.67427 26.0097,-2.7098 38.8272,-5.28329 3.3383,-0.67064 3.8729,0.42164 4.1196,3.17415 1.8478,20.6343 3.7797,41.26043 5.685,61.88927 0.3482,3.76574 0.5182,7.55783 1.1048,11.2863 0.4423,2.81431 -0.7511,3.74302 -3.2669,4.08742 -5.1313,0.70335 -10.257,1.35581 -15.2155,1.03958"
             inkscape:connector-curvature="0"
             style="fill:#fefefe" />
          <path
             id="path44213"
             d="m 1421.522,-168.11141 c -1.8414,-10.38122 -0.7512,-20.7488 0.434,-31.06641 3.2624,-28.41203 12.2757,-55.20381 23.5981,-81.3186 0.7174,-1.65296 1.6797,-3.22596 1.687,-5.10973 8.4146,-5.46777 17.6947,-9.25531 26.7335,-13.49267 4.1726,-1.95557 8.2474,-4.26099 13.6171,-5.56955 -3.9523,7.75956 -8.1185,14.53043 -11.4102,21.75657 -12.4045,27.22525 -19.4666,55.76268 -21.6361,85.53052 -0.1654,2.27453 -0.1809,3.81753 -3.4196,3.8239 -17.3237,0.0354 -25.4577,6.88264 -28.8993,23.82754 -0.1142,0.56431 -0.4642,1.08046 -0.7045,1.61843"
             inkscape:connector-curvature="0"
             style="fill:#dcae53" />
          <path
             id="path44215"
             d="m 1732.3594,435.49206 c -14.8527,0.0645 -24.3658,-6.75633 -30.228,-19.09493 -2.3486,-4.94161 -3.7102,-10.18584 -4.848,-15.52275 -0.6186,-2.90063 0.403,-3.32591 2.9609,-2.97787 12.759,1.73656 25.4669,1.42124 38.0642,-1.35399 1.3132,-0.28989 2.2279,-0.4789 3.1052,0.83693 4.466,6.69635 8.7016,13.50721 9.96,21.62844 1.2812,8.26389 -2.1503,13.1937 -10.3694,15.36827 -3.1144,0.8242 -6.2881,0.98777 -8.6449,1.1159"
             inkscape:connector-curvature="0"
             style="fill:#cfcfcf;fill-opacity:1" />
          <path
             id="path44217"
             d="m 1684.4202,293.51914 c -7.0384,0.49798 -7.0503,0.5007 -8.4832,-6.26472 -1.315,-6.20383 -2.481,-12.4431 -3.9523,-18.60967 -0.6489,-2.7198 0.1243,-3.74211 2.831,-4.17647 15.0227,-2.41175 30.1467,-3.78573 45.3192,-4.77533 2.2161,-0.14448 2.7872,0.57613 2.9499,2.68891 0.5812,7.53237 1.2867,15.06021 2.1795,22.56169 0.2696,2.26453 -0.4953,2.74343 -2.5167,3.14144 -12.6814,2.49898 -25.434,4.45001 -38.3274,5.43415"
             inkscape:connector-curvature="0"
             style="fill:#fef8ea" />
          <path
             id="path44219"
             d="m 1433.3132,-102.00114 c -2.3906,-10.06862 -6.024,-19.82281 -7.6991,-30.07045 -0.2878,-1.76564 -0.4139,-3.55854 -0.615,-5.33963 6.0094,11.02731 15.146,17.44832 27.8146,18.66328 1.2099,0.11632 2.4509,0.0918 3.6261,0.35804 3.0669,0.69244 6.7259,-2.42265 9.0361,0.32259 1.93,2.29361 2.3705,5.81399 3.5192,8.77188 4.9521,12.756603 11.3691,24.741708 19.1988,35.980755 0.5922,0.850561 1.1433,1.730202 1.7254,2.614386 -1.5234,1.089555 -2.4637,-0.10632 -3.4214,-0.612477 -16.7882,-8.87274 -33.2821,-18.264358 -49.5978,-27.964942 -1.2831,-0.762412 -2.3952,-1.809262 -3.5869,-2.723432"
             inkscape:connector-curvature="0"
             style="fill:#dcae53" />
          <path
             id="path44221"
             d="m 1512.3769,196.40971 c -23.8832,10.25763 -33.0892,32.15141 -23.7324,56.73955 0.784,2.05916 0.456,2.94153 -1.591,3.59399 -5.3286,1.69749 -10.734,2.22455 -16.1558,0.80513 -9.2993,-2.43628 -13.5139,-9.05449 -11.2869,-18.45247 4.8662,-20.53161 18.7648,-33.14373 37.4821,-41.38128 4.9805,-2.19274 9.9499,-3.81026 15.284,-1.30492"
             inkscape:connector-curvature="0"
             style="fill:#cfcfcf;fill-opacity:1" />
          <path
             id="path44223"
             d="m 1522.25,254.85947 c 14.3071,5.804 28.2204,10.8901 42.7641,14.02609 1.7418,0.3753 2.397,1.06684 1.0299,2.72525 -4.9566,6.01028 -10.3127,11.52348 -17.7915,14.43502 -7.9843,3.10964 -14.8371,0.55341 -21.213,-4.28916 -1.0445,-0.79331 -1.3223,-1.96283 -1.7217,-3.10964 -2.6172,-7.50512 -3.8162,-15.18834 -3.0678,-23.78756"
             inkscape:connector-curvature="0"
             style="fill:#fef8ea" />
          <path
             id="path44225"
             d="m 1448.3743,-179.16235 c 5.8111,-0.0345 6.4626,0.60793 6.7916,6.20837 0.7,11.93876 2.323,23.76393 5.2482,35.35919 1.0007,3.96747 -0.4487,4.76533 -3.9112,4.58995 -11.4486,-0.57886 -17.7377,-6.02118 -19.7984,-17.46832 -1.3013,-7.23432 -1.2328,-14.47227 1.2867,-21.46215 1.8341,-5.08701 5.1276,-7.19615 10.3831,-7.22704"
             inkscape:connector-curvature="0"
             style="fill:#fef8ea" />
          <path
             id="path44227"
             d="m 1862.7069,-158.56986 c 0.3198,3.38408 -0.2358,6.8254 -1.0007,10.21674 -2.2453,9.95593 -10.5887,16.04617 -20.7131,15.35464 -2.5103,-0.17175 -3.4881,-0.99232 -2.8402,-3.62761 3.1482,-12.79841 5.0161,-25.78856 5.5507,-38.95954 0.06,-1.48031 0.4158,-2.44355 2.0488,-3.03876 6.0816,-2.22 12.7106,0.53342 14.9897,6.57095 1.6175,4.28552 2.2499,8.77006 1.9648,13.48358"
             inkscape:connector-curvature="0"
             style="fill:#fef8ea" />
          <path
             id="path44229"
             d="m 1618.7964,-2.8943456 c 8.8323,0 17.458,-0.012722 26.0838,0.00363 8.6047,0.016357 17.2094,0.1154074 26.675,-0.7633246 -6.7149,9.0354007 -14.8618,13.5789995 -25.4121,13.9270392 -11.6908,0.386206 -20.5029,-4.7516957 -27.3467,-13.1673495"
             inkscape:connector-curvature="0"
             style="fill:#fef8ea" />
          <path
             id="path44231"
             d="m 1507.4093,257.00133 c -10.1199,-15.2356 -9.4181,-33.92706 1.3561,-42.08009 -1.4183,8.40748 -3.129,16.46691 -3.7687,24.68265 -0.1562,1.99918 -0.7018,4.49271 0.6909,5.64769 4.0319,3.34409 1.6897,7.17889 1.7217,11.74975"
             inkscape:connector-curvature="0"
             style="fill:#fdfcfb" />
          <path
             id="path44233"
             d="m 1648.1618,205.94945 c -1.2264,0.45072 -2.7882,-0.31805 -3.7715,1.0214 -0.7758,-0.29533 -1.6303,-0.48435 -2.1274,-1.74383 2.1064,0.15175 4.0657,-0.48526 5.8989,0.72243"
             inkscape:connector-curvature="0"
             style="fill:#5e809c" />
          <path
             id="path44235"
             d="m 1783.0858,-281.7032 c 0.6442,-0.3226 1.2885,-0.64519 1.9327,-0.96779 0.8106,0.25444 1.6788,0.42437 2.09,1.44123 -1.4695,0.60066 -2.7827,0.42346 -4.0227,-0.47344"
             inkscape:connector-curvature="0"
             style="fill:#c2963f" />
          <path
             id="path44237"
             d="m 1630.5804,-130.85481 c 23.398,-0.33714 46.8261,-0.2399 69.9463,4.16921 3.0129,0.57521 5.8102,1.33763 6.5394,4.67445 0.6698,3.0642 -0.7822,5.24422 -3.7102,6.44737 -1.6312,0.66881 -1.2181,2.26816 -1.5188,3.52674 -3.2624,13.675322 -8.4914,26.375589 -17.5923,37.394725 -21.1198,25.570466 -66.7451,26.201117 -85.456,-9.379805 -6.5797,-12.511254 -10.0121,-25.8767 -10.6499,-39.95732 -0.2093,-4.59903 1.6869,-6.77814 6.417,-6.83084 12.0069,-0.13359 24.0166,-0.0445 36.0245,-0.0445"
             inkscape:connector-curvature="0"
             style="fill:#372b1b;fill-opacity:1" />
          <path
             id="path44239"
             d="m 1733.8279,-213.01944 c -2.3559,4.38912 1.3955,3.94657 4.0639,4.49544 1.7801,0.36712 3.6901,0.57431 5.2591,1.39125 3.129,1.62934 5.4758,0.68699 7.5383,-1.6675 1.9108,-2.18274 4.1561,-2.74797 6.3877,-0.91781 2.4729,2.02736 2.302,5.0752 0.1252,6.75633 -3.5575,2.74888 -2.2608,4.79714 -0.3271,7.586 2.3714,3.41951 3.2734,7.45604 3.4506,11.5889 0.1554,3.5958 -1.7582,5.97756 -5.2628,6.15749 -3.2158,0.16538 -5.2153,-1.6875 -5.6859,-5.20242 -1.1569,-8.64375 -5.6804,-13.56083 -13.4243,-15.01115 -7.8079,-1.46122 -13.354,1.22768 -17.7322,8.691 -1.7847,3.04239 -4.2119,4.47726 -7.5647,2.78977 -3.3045,-1.66296 -3.797,-4.45818 -2.344,-7.69413 2.3787,-5.29875 6.0405,-9.59517 11.3471,-11.92513 3.4607,-1.52029 5.1623,-3.29229 5.3122,-7.20797 0.1462,-3.84752 3.3181,-5.81853 6.1556,-4.49271 1.7994,0.84057 2.7781,2.29452 2.7013,4.66264"
             inkscape:connector-curvature="0"
             style="fill:#372b1b;fill-opacity:1" />
          <path
             id="path44241"
             d="m 1537.3047,-184.60104 c -0.098,-4.87801 1.7034,-9.17898 4.3727,-13.0992 1.0801,-1.58662 1.0619,-2.44718 -0.4542,-3.58762 -1.3232,-0.99505 -2.4856,-2.25454 -2.8503,-3.97656 -0.4139,-1.95193 0.087,-3.58944 1.8369,-4.7208 1.9501,-1.2613 4.0026,-1.05139 5.3642,0.59249 2.6785,3.23413 5.5735,3.5958 9.121,1.6575 1.0391,-0.56886 2.2984,-0.98687 3.4708,-1.02231 3.818,-0.1145 6.237,-0.91781 4.9101,-5.68404 -0.5703,-2.04826 1.1861,-3.64306 3.4442,-4.002 2.2152,-0.35259 4.561,0.54614 4.6012,2.61075 0.1243,6.38648 4.593,8.48471 9.2819,10.92372 3.5448,1.84379 5.961,5.10155 7.8545,8.61921 2.2042,4.09378 1.6476,7.46331 -1.5974,8.98633 -3.9204,1.84106 -6.2315,-0.19265 -8.0601,-3.49403 -3.3026,-5.96211 -8.5389,-8.12941 -15.2319,-7.65415 -6.7423,0.4789 -11.3225,3.78573 -14.1143,9.79237 -0.7182,1.54664 -0.9129,3.15507 -1.0107,4.83348 -0.2092,3.60489 -1.8898,6.13658 -5.7791,6.26289 -3.4086,0.11087 -5.2098,-2.53442 -5.1595,-7.03803"
             inkscape:connector-curvature="0"
             style="fill:#372b1b;fill-opacity:1" />
          <path
             id="path44243"
             d="m 1572.536,-317.69305 c 5.366,0.16902 9.5386,2.33996 12.6493,6.41102 1.5746,2.06007 1.6513,4.3146 -0.4852,6.00845 -1.9118,1.51484 -3.8829,1.08502 -5.7216,-0.54977 -5.7425,-5.10701 -12.101,-4.51361 -16.949,1.82743 -1.9629,2.56805 -4.0017,4.71263 -6.9817,2.34814 -3.1975,-2.53624 -1.3095,-5.42233 0.6854,-7.85952 4.3745,-5.34236 10.1381,-7.92585 16.8028,-8.18575"
             inkscape:connector-curvature="0"
             style="fill:#372b1b;fill-opacity:1" />
          <path
             id="path44245"
             d="m 1654.5751,-188.7648 c 0.043,3.73666 -3.8509,9.18353 -6.6299,9.12264 -2.8896,-0.0627 -4.5053,-1.58117 -4.4797,-4.52724 0.034,-3.80935 4.1059,-9.19806 6.8876,-8.95634 2.536,0.219 4.201,1.58571 4.222,4.36094"
             inkscape:connector-curvature="0"
             style="fill:#372b1b;fill-opacity:1" />
          <path
             id="path44247"
             d="m 1633.6966,-120.25187 c 18.221,-0.0273 36.4677,0.0909 54.5718,2.66073 2.0753,0.29443 3.4141,0.47072 2.7726,3.1678 -3.3785,14.20965 -8.7354,27.371548 -19.9939,37.357469 -17.2497,15.299206 -44.7828,12.460366 -58.4758,-5.978467 -7.6059,-10.242181 -10.9816,-22.075532 -12.9436,-34.438662 -0.361,-2.27271 0.392,-2.83521 2.6108,-2.8143 10.4854,0.10086 20.9727,0.0454 31.4581,0.0454"
             inkscape:connector-curvature="0"
             style="fill:#fefefe" />
        </g>
      </g>
    </g>
  </g>
</svg>
