<?xml version="1.0" encoding="UTF-8"?>
<!DOCTYPE svg PUBLIC "-//W3C//DTD SVG 1.1//EN" "http://www.w3.org/Graphics/SVG/1.1/DTD/svg11.dtd">
<svg version="1.1" xmlns="http://www.w3.org/2000/svg" xmlns:xlink="http://www.w3.org/1999/xlink" x="0" y="0" width="954" height="904" viewBox="0, 0, 954, 904">
  <defs>
    <clipPath id="Clip_1">
      <path d="M0,904 L953.279,904 L953.279,0.254 L0,0.254 z"/>
    </clipPath>
    <clipPath id="Clip_2">
      <path d="M0,904 L953.279,904 L953.279,0.254 L0,0.254 z"/>
    </clipPath>
  </defs>
  <g id="Layer_1">
    <g clip-path="url(#Clip_1)">
      <path d="M438.141,894.035 C437.315,898.426 435.187,901.504 430.246,901.398 C425.305,901.292 423.548,898.108 422.668,893.708 C416,860.411 410.674,826.907 406.908,793.156 C406.319,787.875 405.664,782.601 404.97,776.739 C398.009,780.582 391.48,784.367 384.79,787.844 C366.161,797.525 347.158,806.239 326.089,809.245 C307.54,811.891 289.615,808.459 271.914,803.406 C246.392,796.12 222.365,785.217 199.034,772.708 C196.754,771.486 194.638,770.82 191.969,771.145 C152.82,775.909 118.662,751.536 110.02,712.772 C103.484,683.454 113.398,658.417 138.34,641.083 C148.103,634.299 158.828,629.501 170.436,625.451 C162.784,613.487 155.299,601.729 148.65,589.476 C136.963,567.943 126.419,545.948 121.567,521.689 C119.458,511.143 118.691,500.509 121.467,490.003 C129.487,459.651 166.151,449.74 189.004,471.614 C201.827,483.889 209.688,499.254 215.873,515.504 C228.874,549.666 235.878,585.107 237.468,621.62 C237.569,623.944 238.067,626.334 237.683,628.574 C237.233,631.21 238.322,632.49 240.256,633.863 C258.264,646.652 268.972,664.018 272.464,685.81 C273.499,692.263 273.494,698.783 272.562,705.228 C272.201,707.728 272.561,708.685 275.109,709.4 C284.083,711.917 293.142,714.036 302.307,715.669 C306.638,716.441 310.471,714.412 314.144,712.504 C327.147,705.75 337.917,696.029 348.439,686.064 C362.956,672.315 376.398,657.541 389.507,642.448 C392.206,639.34 392.316,638.36 388.135,636.852 C358.514,626.174 331.908,610.472 309.138,588.542 C279.494,559.991 260.443,525.195 249.125,485.969 C247.599,480.683 245.801,478.535 239.822,478.131 C215.243,476.473 199.018,459.196 198.288,433.077 C197.944,420.764 195.38,409.55 191.427,397.936 C176.226,353.273 184.178,311.06 207.336,270.985 C211.84,263.192 216.944,255.773 222.763,248.912 C224.711,246.615 224.402,245.3 222.782,243.053 C210.484,226 201.407,207.515 197.717,186.583 C192.304,155.886 201.168,129.666 222.48,107.481 C243.157,85.957 269.232,73.171 296.768,63.08 C305.414,59.911 313.205,56.01 320.432,49.996 C349.551,25.762 383.871,12.86 420.713,6.064 C462.848,-1.709 505.146,-0.869 547.536,3.82 C585.728,8.045 623.036,15.894 658.869,30.016 C705.524,48.403 745.501,75.84 775.35,116.775 C799.562,149.979 813.566,187.363 819.838,227.747 C825.218,262.393 825.017,297.045 818.924,331.623 C818.356,334.849 817.564,337.833 814.285,339.391 C811.759,340.592 813.148,342.48 813.505,344.128 C817.862,364.201 820.712,384.433 819.772,405.045 C817.748,449.432 797.811,482.696 758.263,503.663 C755.75,504.996 754.128,506.581 753.108,509.274 C749.516,518.759 745.438,528.06 740.165,536.735 C738.019,540.267 739.073,541.442 742.372,543.071 C769.781,556.609 791.895,575.939 806.721,602.997 C818.62,624.714 824.156,648.186 825.368,672.763 C827.056,706.968 821.177,740.022 809.873,772.208 C807.932,777.736 804.083,780.069 799.814,778.656 C795.202,777.128 793.731,772.903 795.749,767.068 C806.966,734.639 812.931,701.437 809.893,667.022 C805.328,615.317 779.973,577.798 733.05,555.108 C730.883,554.06 729.503,553.947 728.23,556.298 C726.973,558.619 725.362,560.749 723.907,562.962 C722.742,567.534 719.355,570.605 716.375,573.908 C713.823,576.735 712.058,579.719 712.243,583.707 C712.948,598.856 709.938,613.51 705.981,627.998 C705.054,631.394 704.782,634.283 707.039,637.381 C708.92,639.962 709.32,643.238 709.017,646.478 C707.719,660.374 708.257,674.384 706.332,688.245 C705.811,691.993 706.977,695.416 708.967,698.675 C721.762,719.63 738.911,736.363 758.907,750.332 C766.413,755.575 774.021,760.718 782.22,764.803 C787.518,767.443 789.597,771.125 788.116,776.825 C785.184,782.277 781.88,783.361 776.356,780.406 C747.393,764.912 721.901,745.255 702.364,718.489 C702.078,718.097 701.725,717.754 700.917,716.835 C699.502,722.671 698.304,728.072 696.874,733.411 C693.512,745.968 689.056,758.073 682.113,769.177 C661.822,801.627 626.935,796.084 608.543,774.573 C607.083,772.866 605.635,771.147 603.705,768.872 C602.416,780.15 601.246,790.676 600.005,801.193 C596.342,832.248 591.355,863.089 585.183,893.746 C584.287,898.194 582.509,901.302 577.602,901.393 C572.705,901.483 570.458,898.534 569.766,894.035 C568.422,891.968 569.193,889.816 569.609,887.731 C576.868,851.438 582.225,814.857 586.246,778.073 C586.608,774.763 586.773,771.438 587.168,768.125 C587.709,763.573 586.748,762.694 581.943,762.436 C571.808,761.892 561.684,761.163 551.568,760.335 C546.213,759.897 542.643,756.223 542.689,751.384 C542.737,746.355 546.647,742.76 552.254,742.594 C553.087,742.57 553.92,742.601 554.75,742.688 C564.685,743.719 574.67,744.053 584.621,744.833 C588.217,745.114 589.547,743.814 589.508,740.464 C589.497,739.467 589.6,738.464 589.809,737.484 C590.65,733.558 593.8,730.529 597.686,730.173 C601.57,729.816 604.477,731.535 606.302,734.945 C607.883,737.898 608.666,741.168 609.77,744.308 C612.928,753.286 617.94,761.019 625.02,767.423 C638.092,779.245 654.236,778.018 665.162,764.328 C670.537,757.593 674.124,749.915 676.924,741.848 C684.353,720.44 687.712,698.256 689.539,675.765 C690.079,669.12 690.532,662.496 690.53,655.823 C690.53,652.072 689.313,650.367 685.342,650.399 C671.179,650.512 657.014,650.388 642.851,650.474 C637.928,650.504 636.969,651.484 637.523,656.539 C639.317,672.921 640.271,689.379 642.069,705.758 C642.471,709.418 642.559,713.085 642.246,716.736 C641.856,721.279 639.278,723.834 635.017,724.252 C630.394,724.706 627.053,722.746 625.794,718.396 C623.973,712.107 624.114,705.535 623.552,699.083 C621.907,680.181 620.023,661.301 618.585,642.382 C618.424,640.264 617.648,639.737 615.761,640.424 C607.446,643.454 598.868,645.564 590.294,647.682 C587.611,648.345 586.682,650.043 586.346,652.688 C585.167,661.951 585.01,671.285 584.517,680.579 C583.769,694.701 582.722,708.808 582.204,722.947 C581.89,731.522 576.178,735.036 568.06,732.139 C557.546,728.387 547.141,724.337 536.687,720.421 C535.595,720.012 534.514,719.561 533.504,718.973 C529.571,716.684 527.866,712.517 529.123,708.316 C530.366,704.164 533.465,702.227 538.468,702.709 C544.035,703.245 548.886,706.124 554.14,707.691 C557.694,708.75 561.649,712.598 564.583,710.38 C567.053,708.513 565.173,703.465 565.511,699.848 C566.813,685.931 566.867,671.932 568.263,658.023 C568.803,652.652 568.374,652.167 563.074,652.966 C561.094,653.265 559.103,653.43 557.115,653.642 C553.348,654.043 550.758,655.867 548.88,659.273 C538.104,678.823 527.465,698.448 516.595,717.946 C514.243,722.164 513.354,726.53 513.361,731.333 C513.436,782.822 513.417,834.312 513.386,885.801 C513.384,888.585 513.947,891.516 512.032,894.008 C511.22,902.178 509.441,904.089 503.337,903.997 C499.699,903.942 497.962,901.903 496.827,898.884 C495.523,892.669 495.543,886.373 495.547,880.062 C495.578,830.415 495.518,780.769 495.632,731.123 C495.644,725.918 494.441,721.426 491.724,716.985 C480.072,697.944 468.723,678.72 457.343,659.515 C454.308,654.394 447.753,651.448 442.146,652.338 C440.354,652.623 440.103,653.592 440.123,655.108 C440.268,665.762 440.974,676.401 441.876,686.996 C442.456,693.801 441.821,700.637 443.007,707.426 C443.636,711.025 444.862,711.383 447.945,710.156 C453.359,708 458.827,705.968 464.303,703.97 C471.865,701.213 477.216,702.807 479.155,708.258 C480.998,713.438 477.912,717.95 470.646,720.703 C460.832,724.421 450.991,728.066 441.169,731.763 C432.192,735.143 427.597,732.283 426.452,722.662 C425.291,712.908 425.082,703.09 424.584,693.292 C423.917,680.17 422.708,667.079 422.429,653.934 C422.366,650.956 421.444,648.303 418.028,647.481 C413.737,646.447 409.412,644.27 405.625,648.826 C400.197,655.356 394.458,661.619 388.822,667.971 C373.546,685.192 357.523,701.628 339.244,715.695 C330.383,722.514 321.192,728.858 309.947,731.33 C305.805,732.241 301.763,732.355 297.584,731.473 C289.434,729.753 281.248,728.192 273.222,725.942 C270.522,725.186 268.405,725.312 266.921,728.143 C257.776,745.589 243.035,756.393 225.006,763.256 C224.228,763.552 223.454,763.863 222.727,764.274 C222.417,764.45 222.221,764.708 222.099,765.126 C222.34,766.695 223.882,766.859 224.978,767.4 C245.966,777.762 267.745,785.879 290.595,791.191 C312.983,796.396 334.213,792.946 354.933,783.902 C369.312,777.626 383.151,770.365 396.633,762.351 C400.452,760.081 401.845,757.344 401.683,753.013 C401.521,748.673 400.405,744.439 400.61,740.083 C400.889,734.135 404.093,730.307 409.022,730.134 C414.083,729.956 417.895,733.957 418.309,739.821 C421.264,781.709 426.552,823.306 433.811,864.662 C435.166,872.376 436.792,880.034 438.218,887.732 C438.604,889.815 439.49,891.953 438.141,894.035" fill="#6B421E"/>
    </g>
    <path d="M438.141,894.035 C431.15,860.301 425.779,826.31 421.883,792.081 C419.87,774.389 418.117,756.677 416.933,738.908 C416.627,734.309 413.371,731.167 409.3,731.198 C405.028,731.232 401.854,734.66 402.015,739.589 C402.205,745.405 402.647,751.221 403.208,757.015 C403.396,758.958 402.936,760.115 401.28,761.101 C377.218,775.428 352.945,789.368 324.852,794.258 C309.789,796.88 295.056,793.929 280.473,790.116 C258.66,784.414 238.128,775.539 217.653,765.453 C219.444,763.382 221.687,763.126 223.587,762.412 C242.488,755.309 257.965,744.241 266.644,725.336 C267.733,722.964 268.995,723.252 270.962,723.82 C279.908,726.401 289.002,728.338 298.13,730.192 C305.594,731.707 312.375,730.025 318.913,726.921 C333.7,719.901 345.784,709.163 357.62,698.14 C374.339,682.569 389.595,665.614 404.282,648.154 C407.22,644.662 409.816,643.49 414.383,644.89 C423.303,647.625 423.302,647.33 423.829,657.006 C425.021,678.934 426.256,700.859 427.598,722.777 C428.106,731.077 432.236,733.649 439.97,730.766 C450.563,726.819 461.145,722.845 471.718,718.845 C477.719,716.575 479.859,713.031 478.127,708.4 C476.418,703.832 472.448,702.543 466.419,704.751 C459.396,707.324 452.405,709.983 445.415,712.643 C443.28,713.456 441.999,713.9 441.829,710.549 C440.857,691.446 439.628,672.357 438.448,653.266 C438.316,651.118 438.787,650.227 441.239,650.715 C444.821,651.428 448.473,651.844 452.115,652.18 C454.464,652.396 455.547,653.897 456.598,655.659 C469.468,677.239 482.313,698.834 495.294,720.347 C496.707,722.689 496.804,725.002 496.804,727.494 C496.799,781.132 496.799,834.77 496.801,888.407 C496.801,891.9 496.819,895.393 496.828,898.885 C496.259,894.709 493.922,893.814 489.808,893.887 C472.59,894.19 455.364,894.027 438.141,894.035" fill="#BAD3D7"/>
    <path d="M512.032,894.008 C511.954,892.348 511.809,890.688 511.809,889.028 C511.797,835.539 511.816,782.049 511.756,728.559 C511.753,725.465 512.36,722.761 513.873,720.032 C525.566,698.928 537.176,677.777 548.722,656.593 C550.025,654.202 551.402,652.683 554.386,652.69 C557.023,652.696 559.672,652.106 562.298,651.677 C570.142,650.394 570.03,650.367 569.547,658.067 C568.495,674.842 567.396,691.618 566.692,708.409 C566.486,713.334 565.084,713.76 560.928,711.977 C554.517,709.226 547.897,706.955 541.327,704.585 C535.918,702.634 531.896,703.921 530.255,707.949 C528.376,712.558 530.51,716.55 536.169,718.696 C547.054,722.824 557.953,726.913 568.875,730.939 C575.973,733.556 580.344,730.709 580.782,723.226 C582.182,699.3 583.611,675.375 584.833,651.439 C584.987,648.426 585.692,647.235 588.804,646.562 C599.49,644.247 609.971,641.102 620.369,637.462 C619.386,648.405 621.606,658.872 622.298,669.423 C623.212,683.369 624.699,697.278 625.959,711.201 C626.139,713.189 626.314,715.189 626.694,717.144 C627.551,721.56 630.542,723.78 634.849,723.353 C639.042,722.937 641.552,720.115 641.279,715.397 C640.857,708.088 640.118,700.796 639.475,693.5 C638.322,680.4 637.222,667.294 635.916,654.21 C635.561,650.647 636.247,649.233 640.28,649.294 C656.107,649.533 671.939,649.414 687.77,649.37 C690.287,649.363 692.261,649.265 692.14,652.89 C691.075,684.61 688.107,716.01 676.902,746.054 C674.276,753.096 670.811,759.72 666.029,765.604 C654.865,779.338 638.359,780.896 624.752,769.34 C616.389,762.237 611.254,752.989 607.659,742.784 C607.217,741.53 606.758,740.282 606.35,739.017 C604.462,733.155 601.678,730.69 597.596,731.293 C593.173,731.947 591.006,734.751 590.929,740.867 C590.875,745.072 590.219,746.991 585.03,746.353 C574.473,745.055 563.798,744.696 553.164,744.068 C547.255,743.719 543.945,746.351 543.804,751.199 C543.66,756.103 546.586,758.674 552.62,759.059 C563.085,759.728 573.539,760.613 584.013,761.055 C588.169,761.23 589.267,762.609 588.845,766.744 C584.488,809.478 578.465,851.955 569.766,894.035 C550.521,894.026 531.277,894.017 512.032,894.008" fill="#BAD3D7"/>
    <g clip-path="url(#Clip_2)">
      <path d="M788.116,776.825 C788.772,771.977 786.96,768.964 782.438,766.498 C761.741,755.21 742.678,741.67 726.592,724.228 C719.009,716.005 712.311,707.148 706.637,697.5 C705.231,695.109 704.462,692.735 704.808,689.938 C706.601,675.414 706.658,660.774 707.62,646.194 C707.828,643.042 708.008,639.373 705.482,637.28 C702.392,634.719 703.296,632.293 704.144,629.377 C708.618,613.99 711.581,598.373 710.939,582.242 C710.859,580.248 710.872,578.389 712.392,576.665 C716.338,572.193 720.082,567.543 723.907,562.963 C761.179,590.093 783.284,626.746 791.912,671.744 C798.067,703.847 796.86,735.864 789.89,767.703 C789.226,770.738 789.695,773.986 788.116,776.825" fill="#D1A560"/>
      <path d="M910.606,447.293 C918.753,447.316 926.846,447.807 934.758,450.081 C957.932,456.74 956.626,479.568 945.711,491.99 C938.509,500.187 928.822,502.883 918.425,503.363 C905.255,503.972 892.636,501.481 880.836,495.441 C875.466,492.693 873.746,488.427 876.068,484.169 C878.225,480.212 882.51,479.502 887.729,482.018 C899.9,487.886 912.581,490.341 925.926,486.978 C931.976,485.453 936.171,481.747 937.88,475.499 C939.126,470.942 937.835,467.79 933.424,465.787 C926.406,462.599 918.932,462.059 911.476,462.303 C903.014,462.58 894.591,463.602 886.453,466.317 C882.466,467.647 878.418,465.536 877.107,461.898 C875.673,457.92 877.486,453.711 881.709,452.165 C891.016,448.756 900.769,447.782 910.606,447.293" fill="#6B421E"/>
      <path d="M885.583,427.174 C884.584,427.174 883.586,427.188 882.587,427.171 C877.147,427.081 873.913,424.312 873.914,419.757 C873.916,415.222 877.173,412.204 882.581,412.217 C894.353,412.245 905.22,409.1 915.343,403.247 C917.344,402.09 919.269,400.72 920.995,399.184 C926.232,394.524 927.007,390.464 924.114,384.09 C921.297,377.881 916.853,375.166 910.163,376.187 C899.248,377.852 890.316,383.484 882.427,390.916 C877.985,395.101 873.586,395.641 870.282,392.178 C866.997,388.736 867.416,384.649 871.714,380.406 C881.526,370.718 892.999,364.025 906.688,361.505 C919.848,359.082 931.191,364.601 937.082,376.206 C943.643,389.133 941.986,400.47 931.337,410.061 C918.415,421.698 902.491,425.891 885.583,427.174" fill="#6B421E"/>
      <path d="M13.032,453.887 C18.471,454.696 24.579,457.422 30.923,459.282 C40.308,462.035 49.589,465.146 58.896,468.162 C65.916,470.437 69.46,476.503 67.484,482.695 C65.42,489.167 59.363,492.203 52.337,490.009 C37.618,485.413 22.924,480.732 8.259,475.968 C2.42,474.072 -0.795,468.795 0.17,463.276 C1.179,457.502 5.813,453.764 13.032,453.887" fill="#EF6F63"/>
    </g>
    <path d="M19.737,553.315 C12.277,553.495 7.527,549.532 6.866,543.548 C6.146,537.025 9.645,532.174 16.131,530.936 C22.84,529.654 29.655,529.389 36.461,529.17 C41.606,529.004 46.752,529.278 51.883,528.431 C58.363,527.361 64.252,531.574 65.06,537.595 C66.01,544.682 61.975,549.86 54.89,551.012 C42.864,552.967 30.589,550.85 19.737,553.315" fill="#EF6F63"/>
    <path d="M89.16,420.668 C89.01,430.035 79.384,435.947 72.506,430.789 C62.444,423.243 53.037,414.774 43.753,406.26 C39.65,402.497 40.135,395.943 43.753,391.72 C47.328,387.548 53.71,386.138 58.174,389.362 C68.272,396.654 77.445,405.099 86.555,413.575 C88.646,415.521 89.568,418.339 89.16,420.668" fill="#EF6F63"/>
    <path d="M255.172,442.948 C247.178,395.536 253.314,349.442 268.281,304.216 C277.596,276.066 290.763,249.891 308.778,226.223 C311.226,223.007 314.043,221.126 317.914,219.937 C361.045,206.697 405.155,200.318 450.25,200.541 C452.837,200.554 454.901,200.777 456.713,203.173 C493.103,251.288 539.329,287.734 591.82,316.703 C629.728,337.624 668.553,356.468 710.345,368.475 C724.276,372.478 738.395,375.674 752.967,376.163 C756.568,376.284 757.925,377.45 758.09,381.423 C759.062,404.801 757.916,428.012 753.75,451.052 C752.06,453.523 751.292,451.475 750.639,450.291 C749.277,447.824 748.211,445.195 746.83,442.737 C738.82,428.482 727.634,418.305 711.083,415.073 C699.956,412.901 690.094,416.007 681.056,422.365 C679.029,423.792 677.273,425.605 674.968,426.641 C670.462,427.185 666.336,425.049 661.905,424.805 C656.139,424.486 654.639,425.355 653.363,430.93 C649.335,434.301 644.851,436.879 639.897,438.636 C633.827,437.246 631.898,438.713 632.268,444.905 C632.827,454.245 638.423,459.889 646.474,463.656 C650.048,465.329 654.366,465.119 657.443,468.033 C658.547,470.171 658.278,472.576 658.756,474.839 C662.09,490.603 671.827,501.866 684.619,510.631 C692.344,515.923 701.4,516.581 710.513,515.182 C718.107,514.016 725.363,511.721 732.165,508.05 C735.15,506.438 735.208,506.544 737.178,508.236 C729.837,526.766 719.676,543.624 707.3,559.175 C705.423,558.781 705.453,557.202 704.949,556.157 C695.802,537.201 672.37,525.297 651.721,529.071 C640.991,531.032 634.236,541.788 639.493,551.318 C632.318,551.857 626.12,554.287 621.51,559.828 C616.933,565.332 616.983,570.563 621.664,578.611 C618.929,579.794 616.037,580.711 613.488,582.211 C604.274,587.631 603.754,598.367 612.251,604.897 C615.875,607.681 620.084,609.302 624.369,610.603 C626.855,611.358 626.831,612.244 626.049,614.449 C624.614,618.496 622.254,620.784 618.043,622.313 C588.209,633.143 557.341,638.334 525.777,640.04 C485.077,642.24 444.945,638.846 405.832,626.954 C347.799,609.309 304.311,574.165 277.702,519.089 C276.62,516.851 275.709,514.53 274.718,512.248 C275.56,509.206 277.581,511.005 278.881,511.474 C284.077,513.348 289.407,514.597 294.86,515.302 C309.178,517.155 321.045,512.365 330.528,501.661 C334.71,496.942 338.617,492.028 341.474,486.27 C346.392,476.359 346.968,466.147 344.192,455.699 C341.957,447.288 338.302,439.46 333.115,432.399 C317.393,410.997 289.335,408.386 269.847,426.538 C265.692,430.408 261.974,434.635 259.039,439.536 C258.145,441.029 257.46,442.952 255.172,442.948" fill="#FDF4E8"/>
    <path d="M772.998,288.488 C758.395,279.129 744.341,270.603 729.911,262.71 C670.834,230.398 608.577,206.69 542.258,194.438 C437.561,175.095 336.864,186.49 241.266,235.006 C237.961,236.683 236.231,236.373 234.136,233.283 C223.283,217.272 214.712,200.324 211.963,180.922 C208.196,154.328 217.665,132.585 236.76,114.549 C256.289,96.102 280.052,85.026 304.936,76.063 C339.522,63.604 375.291,55.577 411.669,51.424 C478.909,43.748 545.259,48.966 609.873,70.092 C641.366,80.389 670.148,95.73 694.282,118.927 C710.601,134.612 723.124,152.912 731.441,173.945 C745.626,209.815 759.061,245.966 771.263,282.565 C771.824,284.249 772.265,285.973 772.998,288.488" fill="#BAD3D7"/>
    <path d="M619.021,231.077 C625.354,231.253 630.839,234.334 636.535,236.477 C687.059,255.492 734.764,279.918 779.01,310.983 C787.943,317.255 793.742,324.902 796.189,335.972 C799.925,352.874 803.251,369.773 804.776,387.014 C804.863,387.999 804.787,388.998 804.787,390.926 C796.801,381.434 786.954,378.334 775.585,378.955 C771.459,379.181 772.581,376.182 773.444,374.107 C777.137,365.229 774.238,360.9 764.485,361.253 C739.016,362.176 715.038,355.269 691.604,346.594 C639.696,327.38 590.993,301.881 545.977,269.608 C519.735,250.794 496.765,228.388 476.138,203.572 C475.743,203.097 475.511,202.488 474.867,201.345 C514.324,203.586 552.382,210.379 589.779,221.097 C594.049,223.834 597.103,227.861 600.421,231.533 C623.045,256.571 647.962,278.973 675.934,297.913 C677.586,299.031 679.204,300.25 681.146,300.822 C684.077,301.684 686.414,300.671 688.064,298.207 C689.614,295.89 689.611,293.54 687.784,291.293 C686.291,289.455 684.387,288.121 682.449,286.823 C665.686,275.588 650.053,262.977 635.523,248.952 C630.985,244.571 626.034,240.602 621.725,235.969 C620.454,234.602 618.355,233.565 619.021,231.077" fill="#D1A560"/>
    <path d="M806.193,315.261 C798.028,308.527 792.737,301.307 789.737,291.49 C776.807,249.188 761.287,207.762 744.727,166.763 C728.324,126.153 698.88,97.133 661.092,76.074 C628.456,57.887 593.138,47.613 556.582,41.072 C528.172,35.988 499.478,33.995 470.677,33.223 C432.679,32.205 395.346,37.378 358.332,45.445 C357.197,45.693 356.059,45.944 354.91,46.103 C354.472,46.163 353.999,45.968 352.856,45.771 C368.211,36.834 384.051,30.626 400.556,26.133 C437.722,16.017 475.614,13.785 513.902,16.049 C568.938,19.303 622.653,28.551 672.852,52.552 C745.928,87.491 789.687,145.003 804.064,224.783 C809.266,253.655 809.879,282.666 806.746,311.793 C806.643,312.749 806.446,313.695 806.193,315.261" fill="#BAD3D7"/>
    <path d="M255.172,442.948 C260.689,434.408 266.609,426.36 275.414,420.673 C296.414,407.109 322.543,412.571 335.809,433.892 C342.169,444.113 346.973,454.903 347.108,467.431 C347.238,479.483 342.4,489.295 335.152,498.321 C330.98,503.517 326.445,508.324 320.599,511.714 C307.93,519.062 294.851,517.753 281.556,513.788 C279.348,513.13 277.381,510.982 274.719,512.248 C264.664,490.146 258.499,466.947 255.172,442.948" fill="#F9D1B7"/>
    <path d="M674.868,426.341 C686.166,413.234 706.113,409.459 722.573,417.305 C736.34,423.867 745.154,434.935 751.256,448.555 C751.669,449.477 751.035,452.174 753.75,451.051 C750.359,470.732 745.222,489.906 737.177,508.237 C735.133,506.644 733.824,508.677 732.407,509.383 C720.603,515.265 708.469,518.509 695.072,516.144 C683.711,514.139 676.275,506.665 669.282,498.673 C661.692,489.998 656.819,479.954 656.927,468.041 C658.182,466.583 659.929,466.741 661.559,466.755 C667.361,466.802 672.714,465.192 677.847,462.62 C692.02,455.519 693.321,441.123 680.718,431.413 C678.682,429.844 675.75,429.252 674.868,426.341" fill="#F9D1B7"/>
    <path d="M258.174,698.358 C256.785,716.021 249.717,730.284 235.102,739.733 C220.56,749.133 204.246,754.649 187.054,756.685 C162.478,759.595 137.287,743.745 128.376,720.223 C130.589,720.103 132.128,721.481 133.817,722.259 C140.54,725.352 147.42,727.651 154.971,727.046 C163.255,726.383 168.586,721.751 169.71,713.52 C170.076,710.837 171.038,710.745 173.148,710.964 C177.666,711.434 182.171,711.46 186.068,708.538 C190.726,705.045 191.496,700.043 191.186,694.709 C194.927,694.63 196.228,696.339 196.93,699.922 C199.889,715.041 211.084,722.5 224.168,727.871 C227.698,729.32 231.465,730.12 235.371,729.989 C240.144,729.829 243.258,727.192 243.467,722.987 C243.676,718.765 240.868,715.437 236.181,715.083 C228.854,714.53 222.857,711.299 217.467,706.62 C215.443,704.862 213.74,702.832 212.597,700.371 C209.872,694.503 211.99,689.825 218.3,689.008 C229.775,687.521 240.883,688.084 249.864,696.918 C252.062,699.08 254.876,699.067 258.174,698.358" fill="#FDF4E8"/>
    <path d="M624.405,593.982 C629.217,592.462 634.005,592.208 638.796,591.999 C640.959,591.904 643.127,591.928 645.288,591.816 C649.257,591.611 651.953,589.607 652.742,585.699 C653.541,581.739 651.613,578.957 648.127,577.2 C644.717,575.482 641.206,573.95 637.882,572.083 C636.425,571.264 633.809,570.547 634.526,568.435 C635.091,566.773 637.585,566.72 639.413,566.598 C646.659,566.112 653.641,567.679 660.596,569.417 C661.564,569.658 662.537,569.889 663.482,570.204 C667.59,571.573 670.763,570.223 672.741,566.571 C674.81,562.751 673.493,559.432 670.268,556.887 C665.184,552.877 659.999,548.994 654.978,545.15 C655.462,543.403 656.705,543.586 657.541,543.642 C679.409,545.099 690.739,552.893 694.831,573.901 C698.267,591.54 694.334,608.656 689.592,625.563 C687.088,634.491 686.96,634.455 677.663,634.455 C666.334,634.455 655.005,634.479 643.676,634.446 C636.823,634.426 635.35,632.394 637.713,625.815 C639.338,621.289 641.481,616.952 643.17,612.447 C645.939,605.063 644.292,601.594 636.987,598.982 C633.081,597.586 629.147,596.268 625.235,594.888 C625.003,594.806 624.854,594.485 624.405,593.982" fill="#FDF4E8"/>
    <path d="M220.996,380.776 C214.591,382.812 209.678,386.872 205.406,392.846 C201.035,380.153 198.919,367.736 198.83,354.956 C198.561,316.572 213.302,283.953 237.323,254.915 C238.051,254.036 238.914,253.141 239.908,252.629 C251.385,246.71 262.764,240.577 274.943,236.15 C275.338,238.965 273.019,240.198 271.526,241.853 C254.819,260.376 240.447,280.421 231.13,303.758 C224.15,321.241 220.735,339.449 220.345,358.235 C220.234,363.564 221.344,368.808 221.9,374.09 C222.145,376.422 222.638,378.726 220.996,380.776" fill="#FEFEFE"/>
    <path d="M220.996,380.776 C220.807,372.326 219.02,364.001 219.224,355.505 C220.049,321.084 232.287,290.811 252.301,263.273 C259.246,253.716 267.097,244.941 274.943,236.15 C278.356,234.577 281.769,233.004 285.182,231.431 C285.431,231.643 285.681,231.855 285.931,232.067 C283.899,235.495 281.869,238.924 279.835,242.351 C259.738,276.205 247.671,312.923 240.97,351.539 C239.61,359.379 238.302,367.243 237.431,375.147 C237.058,378.529 235.723,379.273 232.709,379.006 C228.696,378.651 224.775,379.357 220.996,380.776" fill="#D1A560"/>
    <path d="M176.353,696.139 C167.893,694.972 161.355,691.259 155.028,686.967 C150.825,684.116 146.606,684.7 143.987,688.276 C141.54,691.618 142.208,695.722 145.732,698.902 C146.35,699.46 147.061,699.918 147.644,700.507 C150.702,703.594 153.48,706.871 154.771,711.631 C152.273,712.496 149.964,712.039 147.608,711.37 C142.772,709.997 138.318,707.772 133.957,705.345 C132.035,704.275 129.933,702.924 127.872,703.761 C123.012,705.734 123.232,702.445 123.054,699.517 C121.91,680.747 130.002,666.418 144.531,655.269 C154.016,647.991 164.805,643.277 176.053,639.47 C178.326,638.701 179.545,638.741 180.469,641.428 C181.407,644.151 184.296,645.498 186.364,647.402 C192.779,653.31 198.451,659.795 202.296,667.697 C203.236,669.63 203.966,671.683 204.608,673.738 C205.355,676.129 204.998,678.201 202.884,679.997 C200.781,681.785 198.912,681.047 196.902,680.123 C191.065,677.439 186.334,673.219 181.646,668.98 C177.695,665.407 173.984,661.568 170.043,657.984 C165.887,654.205 161.776,654.032 158.524,657.271 C155.311,660.47 155.624,664.674 159.361,668.751 C166.585,676.634 172.608,685.249 176.353,696.139" fill="#FDF4E8"/>
    <path d="M179.985,575.543 C176.346,575.273 172.711,574.903 169.067,574.752 C159.278,574.348 153.237,569.479 150.517,560.033 C149.381,556.085 145.496,551.809 146.4,548.717 C147.253,545.8 153.373,546.309 157.152,545.278 C171.598,541.334 185.467,535.834 199.006,529.573 C203.71,527.398 204.905,528.483 206.3,533.026 C209.465,543.338 212.168,553.755 214.847,564.193 C215.756,567.735 214.706,569.091 211.281,570.073 C201.028,573.01 190.7,575.279 179.985,575.543" fill="#FEFEFE"/>
    <path d="M134.823,505.664 C134.727,497.175 134.72,497.32 143.487,497.753 C156.254,498.384 168.546,495.274 180.781,492.274 C185.026,491.234 187.468,491.939 189.538,495.849 C192.097,500.68 194.907,505.372 197.325,510.295 C198.513,512.714 198.161,513.737 195.774,514.755 C179.143,521.844 162.527,528.931 144.771,532.878 C141.246,533.661 139.591,533.164 138.692,529.181 C136.936,521.399 134.924,513.702 134.823,505.664" fill="#FEFEFE"/>
    <path d="M619.021,231.077 C638.695,251.688 659.976,270.418 683.679,286.313 C690.578,290.939 692.196,294.607 689.301,299.072 C686.487,303.411 681.944,303.419 675.442,299.034 C643.795,277.692 616.248,251.8 591.225,223.11 C590.685,222.49 590.259,221.77 589.78,221.097 C599.616,224.162 609.829,226.124 619.021,231.077" fill="#6E4100"/>
    <path d="M798.51,423.751 C798.355,430.384 798.145,437.005 796.035,443.426 C792.094,455.418 783.22,462.436 770.713,463.381 C768.194,463.571 766.735,463.699 767.438,460.091 C771.427,439.635 773.514,418.963 773.403,398.104 C773.388,395.216 774.08,394.017 777.267,393.93 C787.518,393.65 793.847,398.307 796.663,408.911 C797.948,413.749 798.508,418.717 798.51,423.751" fill="#FDF4E8"/>
    <path d="M212.83,426.097 C212.851,418.204 213.417,411.603 215.957,405.336 C219.218,397.292 224.842,393.747 233.349,393.954 C235.783,394.012 236.92,394.459 236.87,397.237 C236.492,418.421 238.646,439.384 242.778,460.147 C243.344,462.994 242.502,463.492 239.751,463.271 C227.822,462.315 218.452,454.615 215.029,442.626 C213.374,436.828 212.739,430.9 212.83,426.097" fill="#FDF4E8"/>
    <path d="M256.29,681.606 C244.813,675.175 233.728,672.92 222.083,673.312 C220.309,673.372 219.633,672.593 219.389,671.152 C218.228,664.291 214.666,658.489 210.883,652.196 C217.583,650.924 224.027,649.678 229.722,646.234 C230.71,645.636 231.574,646.17 232.436,646.8 C244.068,655.297 251.861,666.419 256.29,681.606" fill="#FDF4E8"/>
    <path d="M186.053,621.35 C198.078,617.153 210.041,613.953 221.901,609.114 C221.95,616.485 223.066,623.208 222.64,630.034 C222.494,632.367 221.638,633.583 219.554,634.487 C211.576,637.949 203.505,637.801 196.003,633.867 C191.262,631.381 189.426,625.778 186.053,621.35" fill="#FEFEFE"/>
    <path d="M165.884,589.543 C183.632,591.565 199.825,589.474 215.649,584.32 C217.713,583.647 218.483,584.113 219.038,586.33 C220.234,591.12 219.685,594.3 214.174,595.997 C202.601,599.562 191.18,603.629 179.74,607.614 C177.915,608.25 176.977,607.786 176.083,606.3 C172.928,601.061 169.727,595.849 165.884,589.543" fill="#FEFEFE"/>
    <path d="M530.08,654.823 C523.512,664.137 516.704,670.949 505.507,671.143 C493.733,671.348 486.488,664.217 479.008,654.846 C496.513,656.022 512.794,656.104 530.08,654.823" fill="#FDF4E8"/>
    <path d="M491.04,683.88 C499.495,686.567 507.331,686.858 515.944,684.908 C511.968,692.186 508.295,698.91 504.367,706.101 C499.916,698.679 495.689,691.631 491.04,683.88" fill="#FDFDFD"/>
    <path d="M172.6,478.641 C162.914,481.203 153.421,483.036 143.402,482.817 C147.682,474.981 165.69,471.783 172.6,478.641" fill="#FCFBFB"/>
    <path d="M768.571,478.652 C766.818,481.111 764.652,482.289 762.171,483.64 C761.983,479.009 764.087,477.634 768.571,478.652" fill="#BB9051"/>
    <path d="M366.961,402.956 C367.015,396.372 368.438,390.048 371.342,384.189 C372.446,381.963 372.622,380.519 371.169,378.433 C367.639,373.365 366.615,367.425 366.182,361.415 C365.891,357.374 367.746,354.4 371.952,354.151 C375.883,353.919 377.942,356.294 378.19,360.332 C378.343,362.808 378.716,365.314 379.359,367.707 C380.195,370.818 381.251,373.585 385.751,372.31 C388.504,371.53 391.265,372.985 393.69,374.592 C409.051,384.775 411.99,410.857 399.261,424.116 C390.696,433.037 378.561,431.89 371.683,421.509 C368.463,416.649 366.894,410.47 366.961,402.956" fill="#6B421E"/>
    <path d="M642.162,405.086 C642.389,409.626 641.309,415.624 637.914,421.02 C630.684,432.509 617.133,433.243 608.711,422.654 C599.949,411.638 599.479,396.933 607.745,383.453 C609.328,380.872 609.618,379.114 607.849,376.455 C605.045,372.24 603.925,367.343 603.931,362.225 C603.936,358.472 606.264,356.658 609.48,356.342 C612.618,356.035 614.863,357.898 615.683,361.025 C616.144,362.781 616.187,364.644 616.614,366.411 C617.479,369.986 618.648,372.71 623.52,372.361 C627.835,372.051 631.334,374.866 634.048,378.211 C639.984,385.527 642.136,394.086 642.162,405.086" fill="#6B421E"/>
    <path d="M502.57,539.077 C522.938,539.472 541.14,542.583 557.789,552.084 C560.093,553.399 562.345,554.867 564.408,556.528 C567.628,559.122 568.166,562.465 565.712,565.771 C563.34,568.968 559.845,569.182 556.835,567.043 C540.625,555.519 522.148,552.083 502.886,552.27 C484.332,552.45 466.544,556.159 450.766,566.781 C447.124,569.233 442.994,568.605 441.071,565.446 C438.728,561.595 439.952,558.389 443.444,555.978 C457.351,546.378 473.066,541.927 489.628,540.034 C494.415,539.487 499.245,539.315 502.57,539.077" fill="#6B421E"/>
    <path d="M674.868,426.341 C680.039,429.349 685.057,432.494 688.125,437.946 C692.929,446.485 690.58,455.9 681.998,461.814 C674.434,467.027 665.915,468.506 656.927,468.041 C651.81,466.765 646.599,465.758 642.037,462.885 C634.426,458.09 630.301,451.406 631.013,442.201 C631.484,436.108 634.765,434.603 639.91,438.019 C641.455,439.181 641.516,440.832 641.38,442.536 C641.011,447.165 643.172,450.519 646.732,453.164 C654.595,459.005 668.039,459.075 675.935,453.321 C680.733,449.825 681.387,445.318 677.327,440.983 C673.026,436.391 667.498,434.384 661.198,434.262 C658.136,434.202 654.683,434.71 653.046,430.96 C652.066,425.48 653.089,423.968 658.443,423.602 C664.109,423.215 669.526,424.623 674.868,426.341" fill="#6B421E"/>
    <path d="M653.046,430.96 C654.803,432.347 656.673,432.814 659.017,432.715 C666.645,432.392 673.48,434.572 678.698,440.447 C683.013,445.305 682.378,450.22 677.15,454.073 C668.737,460.272 655.257,460.701 646.545,454.956 C641.914,451.902 639.234,447.813 640.052,441.955 C640.231,440.675 639.969,439.333 639.91,438.019 C644.216,435.532 648.243,432.524 653.046,430.96" fill="#FEFEFE"/>
    <path d="M362.342,254.068 C373.106,252.905 385.476,251.577 394.084,240.575 C396.209,237.859 399.38,237.724 402.153,239.691 C404.999,241.71 405.429,244.649 403.683,247.62 C400.824,252.488 396.518,255.861 391.617,258.493 C381.9,263.711 371.437,265.995 360.479,265.983 C354.003,265.975 350.967,263.778 350.988,259.627 C351.01,255.445 353.778,253.829 362.342,254.068" fill="#6B421E"/>
    <path d="M502.331,394.035 C504.253,394.102 505.988,394.759 507.118,396.297 C509.08,398.967 511.097,401.645 512.648,404.556 C514.328,407.711 513.691,410.845 510.641,412.884 C507.441,415.023 504.217,414.537 501.809,411.494 C499.862,409.033 498.031,406.407 496.61,403.618 C494.299,399.083 497.445,394.035 502.331,394.035" fill="#6B431F"/>
  </g>
</svg>
