<?xml version="1.0" encoding="UTF-8" standalone="no"?>
<!-- Created with Inkscape (http://www.inkscape.org/) -->

<svg
   xmlns:dc="http://purl.org/dc/elements/1.1/"
   xmlns:cc="http://creativecommons.org/ns#"
   xmlns:rdf="http://www.w3.org/1999/02/22-rdf-syntax-ns#"
   xmlns:svg="http://www.w3.org/2000/svg"
   xmlns="http://www.w3.org/2000/svg"
   xmlns:sodipodi="http://sodipodi.sourceforge.net/DTD/sodipodi-0.dtd"
   xmlns:inkscape="http://www.inkscape.org/namespaces/inkscape"
   width="210mm"
   height="297mm"
   viewBox="0 0 744.09448819 1052.3622047"
   id="svg3400"
   version="1.1"
   inkscape:version="0.91 r13725"
   sodipodi:docname="ocpuf02.svg">
  <defs
     id="defs3402" />
  <sodipodi:namedview
     id="base"
     pagecolor="#ffffff"
     bordercolor="#666666"
     borderopacity="1.0"
     inkscape:pageopacity="0.0"
     inkscape:pageshadow="2"
     inkscape:zoom="0.35"
     inkscape:cx="375"
     inkscape:cy="520"
     inkscape:document-units="px"
     inkscape:current-layer="layer1"
     showgrid="false"
     inkscape:window-width="1366"
     inkscape:window-height="706"
     inkscape:window-x="-8"
     inkscape:window-y="-8"
     inkscape:window-maximized="1" />
  <metadata
     id="metadata3405">
    <rdf:RDF>
      <cc:Work
         rdf:about="">
        <dc:format>image/svg+xml</dc:format>
        <dc:type
           rdf:resource="http://purl.org/dc/dcmitype/StillImage" />
        <dc:title></dc:title>
      </cc:Work>
    </rdf:RDF>
  </metadata>
  <g
     inkscape:label="Layer 1"
     inkscape:groupmode="layer"
     id="layer1">
    <g
       transform="translate(-10.761161,5.3346051)"
       style="display:inline"
       id="g5078">
      <path
         inkscape:connector-curvature="0"
         id="path4955"
         d="M 563.53125,63.125 C 544.20798,63.277681 534.25,73.0625 534.25,73.0625 520.45144,92.860431 515.49461,111.53063 513.9375,125.625 511.43065,123.49721 509.875,122.25 509.875,122.25 484.51688,95.986225 384,94.186897 384,93.28125 c 0,0.905647 -100.51688,2.704975 -125.875,28.96875 0,0 -1.50997,1.22391 -3.9375,3.28125 -1.99012,-13.5829 -7.19261,-30.736953 -19.8125,-48.84375 0,0 -16.33967,-16.020256 -47.71875,-7.375 0,0 -47.70525,17.603018 -53.46875,64.03125 l -1.9375,16.75 c -0.20333,1.01667 -0.13935,1.79548 0.34375,2.46875 16.59061,23.1216 30.36809,30.05114 74.40625,39.25 -6.6163,16.2034 -37.76273,96.76015 -33.75,169.5625 -0.39571,2.37424 -0.75086,4.77353 -1.09375,7.1875 -10.66614,10.36029 -24.13362,22.24344 -32.28125,24.84375 l -1.28125,1.28125 c 0,0 17.61197,4.78408 24.65625,12.46875 0,0 8.95006,8.9711 0.625,15.375 0,0 -21.6225,18.75282 -36.03125,26.4375 0,0 -5.92164,3.65672 -5.28125,4.9375 0.96059,0 18.88646,-1.2635 28.8125,4.5 0,0 9.0617,1.32904 17.125,5.28125 0.0673,1.73053 0.14576,3.31382 0.21875,4.90625 -5.31992,4.58541 -46.92514,41.50788 -64.90625,90.65625 0,0 -25.62924,62.12297 -37.15625,141.53125 l -1.28125,17.9375 7.6875,-8.3125 1.9375,16.625 6.40625,-10.875 c 0,0 1.26681,16.01586 4.46875,16.65625 3.20195,0.64039 4.5,-14.09375 4.5,-14.09375 l 10.875,19.84375 7.03125,-21.125 6.40625,14.09375 7.6875,-20.5 c 0,0 0.58546,-28.3046 38.96875,-83.84375 -1.44201,20.1659 -2.15625,28.125 -2.15625,28.125 0,0 -13.4733,108.8761 16.625,154.34375 0,0 0.22928,0.23048 0.25,0.25 -0.79172,11.62941 -0.66335,33.61218 -1.375,38.59375 -0.90565,6.33953 -2.24638,32.16831 3.1875,50.28125 5.43389,18.11295 12.21754,38.48467 10.40625,38.9375 -1.8113,0.45282 0.46332,3.61089 -7.6875,5.875 -8.15083,2.26412 -36.25,15.875 -36.25,15.875 L 155.125,959 l 0.46875,8.15625 16.75,-1.8125 -0.90625,8.15625 c 0,0 45.26447,-15.39213 67,-17.65625 0,0 6.14506,-72.33586 32.65625,-94.5 3.52746,0.64993 7.10201,1.1428 10.6875,1.46875 0,0 73.16207,9.5928 102.21875,7.03125 29.05668,2.56155 102.21875,-7.03125 102.21875,-7.03125 3.88175,-0.35289 7.75016,-0.89465 11.5625,-1.625 26.74552,21.88982 32.9375,94.71875 32.9375,94.71875 21.73553,2.26412 67,17.65625 67,17.65625 l -0.90625,-8.15625 16.75,1.8125 0.46875,-8.125 11.78125,0.4375 c 0,0 -28.09917,-13.57963 -36.25,-15.84375 -8.15082,-2.26411 -5.8762,-5.42218 -7.6875,-5.875 -1.81129,-0.45283 4.97236,-20.8558 10.40625,-38.96875 5.43388,-18.11294 4.09315,-43.91047 3.1875,-50.25 -0.74564,-5.21945 -0.57433,-29.14111 -1.5,-40.21875 29.03529,-46.18897 15.84375,-153.0625 15.84375,-153.0625 0,0 -0.64913,-7.41328 -1.96875,-25.71875 40.25243,57.32805 40.875,86.5625 40.875,86.5625 l 7.6875,20.5 6.40625,-14.09375 7.03125,21.125 10.875,-19.84375 c 0,0 1.29805,14.73414 4.5,14.09375 3.20194,-0.64039 4.46875,-16.65625 4.46875,-16.65625 l 6.40625,10.875 1.9375,-16.625 7.6875,8.3125 -1.28125,-17.9375 C 692.91049,626.49797 667.28125,564.375 667.28125,564.375 648.06957,511.86307 601.3125,472.8125 601.3125,472.8125 c 0,0 -0.45759,-0.004 -1.25,0.0625 0.0548,-1.06301 0.10276,-2.20019 0.15625,-3.34375 8.02981,-8.56208 25.4375,-11.125 25.4375,-11.125 9.92604,-5.7635 27.85191,-4.5 28.8125,-4.5 0.64039,-1.28078 -5.28125,-4.9375 -5.28125,-4.9375 -14.40875,-7.68468 -36,-26.4375 -36,-26.4375 -8.32506,-6.4039 0.625,-15.375 0.625,-15.375 7.04428,-7.68467 24.65625,-12.46875 24.65625,-12.46875 l -1.28125,-1.28125 c -10.79808,-3.4462 -30.82763,-23.0767 -41.375,-33.96875 3.7323,-80.29279 -34.60436,-169.63468 -35.125,-170.84375 45.59283,-9.40545 59.51004,-16.19586 76.34375,-39.65625 0.4831,-0.67327 0.54708,-1.45208 0.34375,-2.46875 l -1.9375,-16.75 C 629.674,83.290519 581.96875,65.6875 581.96875,65.6875 575.10458,63.79635 568.94177,63.082249 563.53125,63.125 Z"
         style="fill:#000000;stroke:#000000;stroke-width:1px;stroke-linecap:butt;stroke-linejoin:miter;stroke-opacity:1" />
      <g
         transform="translate(511.1625,0)"
         id="g5063">
        <path
           style="fill:#a0522d;stroke:#000000;stroke-width:1;stroke-linecap:butt;stroke-linejoin:miter;stroke-miterlimit:4;stroke-dasharray:none;stroke-opacity:1"
           d="m -126.91856,287.78185 c 0,0 -43.30182,1.62249 -56.75,16.03125 0,0 -13.76728,11.8359 -18.25,32.96875 0,0 -4.18655,15.37909 -1.625,47.71875 0,0 4.50111,52.83638 49.96875,75.25 0,0 10.40736,7.67211 26.65625,8.3125 16.24889,-0.64039 26.65625,-8.3125 26.65625,-8.3125 45.46764,-22.41362 49.9375,-75.25 49.9375,-75.25 2.56155,-32.33966 -1.59375,-47.71875 -1.59375,-47.71875 -4.48272,-21.13285 -18.25,-32.96875 -18.25,-32.96875 -13.44818,-14.40876 -56.75,-16.03125 -56.75,-16.03125 z"
           id="path4984"
           inkscape:connector-curvature="0" />
        <path
           style="fill:#000000;stroke:#000000;stroke-width:1px;stroke-linecap:butt;stroke-linejoin:miter;stroke-opacity:1"
           d="m -102.48955,318.0631 -48.1875,0.46875 c -6.00646,2.87913 -1.2261,9.9809 -1.2261,9.9809 l 19.9761,20.80035 c 0.13375,0.1421 0.24376,0.2437 0.375,0.375 l -0.375,61.1875 -9.375,-7.15625 c -10.70633,-0.89219 -4.46875,8.03125 -4.46875,8.03125 l 14.28125,16.5 c 4.90706,6.24535 9.8125,-0.4375 9.8125,-0.4375 l 15.59375,-13.375 c 7.13755,-13.82901 -6.6875,-10.71875 -6.6875,-10.71875 l -7.5625,8.03125 0.40625,-62.01068 19.7739,-24.47423 c 3.17681,-5.80391 -2.3364,-7.20259 -2.3364,-7.20259 z"
           id="path4993"
           inkscape:connector-curvature="0"
           sodipodi:nodetypes="cccccccccccccccc" />
      </g>
      <g
         transform="translate(0.17645,0)"
         id="g5044">
        <g
           id="g5037">
          <g
             id="g5012">
            <path
               style="fill:#fffff0;stroke:none"
               d="m 253.59419,244.19081 c 0,0 33.5394,-40.98492 81.96983,2.56156 0,0 -35.86179,41.62531 -81.96983,-2.56156 z"
               id="path5000"
               inkscape:connector-curvature="0" />
            <g
               id="g5008"
               transform="matrix(1.0105127,0,0,1.0376151,139.09636,-5.6261551)">
              <ellipse
                 ry="17.610708"
                 rx="14.728955"
                 cy="245.1514"
                 cx="283.05209"
                 transform="translate(-128.07787,-2.8817521)"
                 id="path5002"
                 style="color:#000000;display:inline;overflow:visible;visibility:visible;fill:#000000;fill-opacity:1;fill-rule:nonzero;stroke:#000000;stroke-width:1;stroke-linecap:butt;stroke-linejoin:miter;stroke-miterlimit:4;stroke-dasharray:none;stroke-dashoffset:0;stroke-opacity:1;marker:none;enable-background:accumulate" />
              <ellipse
                 ry="5.4433098"
                 rx="5.9236016"
                 cy="227.86089"
                 cx="117.67155"
                 transform="matrix(0.77606025,0,0,1.1702827,56.000367,-32.430565)"
                 id="path5006"
                 style="color:#000000;display:inline;overflow:visible;visibility:visible;fill:#fffff0;fill-opacity:1;fill-rule:nonzero;stroke:none;stroke-width:1;marker:none;enable-background:accumulate" />
            </g>
          </g>
        </g>
        <g
           id="g5018"
           transform="translate(180.22382,0)">
          <path
             style="fill:#fffff0;stroke:none"
             d="m 253.59419,244.19081 c 0,0 33.5394,-40.98492 81.96983,2.56156 0,0 -35.86179,41.62531 -81.96983,-2.56156 z"
             id="path5020"
             inkscape:connector-curvature="0" />
          <g
             id="g5022"
             transform="matrix(1.0105127,0,0,1.0376151,139.09636,-5.6261551)">
            <ellipse
               ry="17.610708"
               rx="14.728955"
               cy="245.1514"
               cx="283.05209"
               transform="translate(-128.07787,-2.8817521)"
               id="path5024"
               style="color:#000000;display:inline;overflow:visible;visibility:visible;fill:#000000;fill-opacity:1;fill-rule:nonzero;stroke:#000000;stroke-width:1;stroke-linecap:butt;stroke-linejoin:miter;stroke-miterlimit:4;stroke-dasharray:none;stroke-dashoffset:0;stroke-opacity:1;marker:none;enable-background:accumulate" />
            <ellipse
               ry="5.4433098"
               rx="5.9236016"
               cy="227.86089"
               cx="117.67155"
               transform="matrix(0.77606025,0,0,1.1702827,56.000367,-32.430565)"
               id="path5026"
               style="color:#000000;display:inline;overflow:visible;visibility:visible;fill:#fffff0;fill-opacity:1;fill-rule:nonzero;stroke:none;stroke-width:1;marker:none;enable-background:accumulate" />
          </g>
        </g>
      </g>
      <path
         sodipodi:nodetypes="ccccc"
         inkscape:connector-curvature="0"
         id="path5068"
         d="M 385.99446,567.58744 186.19297,476.65215 384.71368,630.98598 583.87477,476.65215 Z"
         style="fill:#ffffff;stroke:none" />
      <g
         transform="translate(911.0812,0)"
         id="g5074">
        <path
           style="fill:#ffffff;stroke:#ffffff;stroke-width:4;stroke-linecap:butt;stroke-linejoin:miter;stroke-miterlimit:4;stroke-dasharray:none;stroke-opacity:1"
           d="m -538.86015,799.23376 c 0,0 14.94318,-13.13189 26.71659,-26.7166"
           id="path5070"
           inkscape:connector-curvature="0" />
        <path
           style="fill:#ffffff;stroke:#ffffff;stroke-width:4;stroke-linecap:butt;stroke-linejoin:miter;stroke-miterlimit:4;stroke-dasharray:none;stroke-opacity:1"
           d="m -539.31298,776.13975 28.07507,23.09401"
           id="path5072"
           inkscape:connector-curvature="0" />
      </g>
    </g>
  </g>
</svg>
