<?xml version="1.0" encoding="iso-8859-1"?>
<!-- Uploaded to: SVG Repo, www.svgrepo.com, Generator: SVG Repo Mixer Tools -->
<!DOCTYPE svg PUBLIC "-//W3C//DTD SVG 1.1//EN" "http://www.w3.org/Graphics/SVG/1.1/DTD/svg11.dtd">
<svg height="800px" width="800px" version="1.1" id="Capa_1" xmlns="http://www.w3.org/2000/svg" xmlns:xlink="http://www.w3.org/1999/xlink" 
	 viewBox="0 0 431.601 431.601" xml:space="preserve">
<g>
	<polygon style="fill:#976EC4;" points="215.8,0 224.008,153.457 260.586,48.659 239.864,157.706 323.7,28.912 254.08,165.913 
		338.156,93.444 265.687,177.521 402.689,107.9 273.895,191.737 382.942,171.015 278.143,207.593 431.601,215.8 278.143,224.008 
		382.942,260.586 273.895,239.864 402.689,323.7 265.687,254.08 338.156,338.156 254.08,265.687 323.7,402.689 239.864,273.895 
		260.586,382.942 224.008,278.143 215.8,431.601 207.593,278.143 171.015,382.942 191.737,273.895 107.9,402.689 177.521,265.687 
		93.444,338.156 165.913,254.08 28.912,323.7 157.706,239.864 48.659,260.586 153.457,224.008 0,215.8 153.457,207.593 
		48.659,171.015 157.706,191.737 28.912,107.9 165.913,177.521 93.444,93.444 177.521,165.913 107.9,28.912 191.737,157.706 
		171.015,48.659 207.593,153.457 	"/>
	<path style="fill:#815FB7;" d="M304.467,215.8c0-2.292-0.087-4.565-0.258-6.813l-26.066-1.394l24.72-8.628
		c-0.798-4.149-1.883-8.196-3.237-12.117l-25.732,4.89l21.889-14.248c-1.976-4.118-4.264-8.057-6.827-11.793l-23.269,11.825
		l17.088-19.825c-2.745-3.161-5.709-6.126-8.87-8.871l-19.825,17.088l11.825-23.27c-3.736-2.563-7.675-4.851-11.793-6.827
		l-14.248,21.889l4.89-25.732c-3.922-1.354-7.968-2.439-12.118-3.237l-8.628,24.72l-1.394-26.066
		c-2.249-0.171-4.521-0.258-6.813-0.258s-4.565,0.087-6.813,0.258l-1.394,26.066l-8.628-24.72
		c-4.149,0.798-8.196,1.883-12.118,3.237l4.89,25.732l-14.248-21.889c-4.118,1.976-8.057,4.264-11.793,6.827l11.825,23.27
		l-19.825-17.088c-3.161,2.745-6.125,5.709-8.87,8.871l17.088,19.825l-23.269-11.825c-2.563,3.736-4.851,7.675-6.827,11.793
		l21.889,14.248l-25.732-4.89c-1.354,3.922-2.439,7.968-3.237,12.117l24.72,8.628l-26.066,1.394
		c-0.171,2.249-0.258,4.521-0.258,6.813s0.087,4.565,0.258,6.813l26.066,1.394l-24.72,8.628c0.798,4.149,1.883,8.196,3.237,12.117
		l25.732-4.89l-21.889,14.248c1.976,4.118,4.264,8.057,6.827,11.793l23.269-11.825l-17.088,19.825
		c2.745,3.161,5.709,6.126,8.87,8.87l19.825-17.088l-11.825,23.27c3.736,2.563,7.675,4.851,11.793,6.827l14.248-21.889l-4.89,25.732
		c3.922,1.354,7.968,2.439,12.118,3.237l8.628-24.72l1.394,26.065c2.249,0.171,4.521,0.258,6.813,0.258s4.565-0.087,6.813-0.258
		l1.394-26.065l8.628,24.72c4.149-0.798,8.196-1.883,12.118-3.237l-4.89-25.732l14.248,21.889c4.118-1.976,8.057-4.264,11.793-6.827
		l-11.825-23.27l19.825,17.088c3.161-2.745,6.125-5.709,8.87-8.87l-17.088-19.825l23.269,11.825
		c2.563-3.735,4.851-7.675,6.827-11.793l-21.889-14.248l25.732,4.89c1.354-3.922,2.439-7.968,3.237-12.117l-24.72-8.628
		l26.066-1.394C304.38,220.365,304.467,218.093,304.467,215.8z"/>
	<g>
		<g>
			<circle style="fill:#FFFFFF;" cx="245.151" cy="215.8" r="12.173"/>
			<circle style="fill:#4D4D4D;" cx="245.151" cy="215.8" r="7.448"/>
		</g>
		<g>
			<circle style="fill:#FFFFFF;" cx="186.449" cy="215.8" r="12.173"/>
			<circle style="fill:#4D4D4D;" cx="186.449" cy="215.8" r="7.448"/>
		</g>
	</g>
</g>
</svg>