<?xml version="1.0" encoding="UTF-8" standalone="no"?>
<!-- Created with Inkscape (http://www.inkscape.org/) -->

<svg
   width="210mm"
   height="297mm"
   viewBox="0 0 210 297"
   version="1.1"
   id="svg361"
   xml:space="preserve"
   inkscape:version="1.2.1 (9c6d41e410, 2022-07-14)"
   sodipodi:docname="sea-urchin-svgrepo-com_v2.svg"
   xmlns:inkscape="http://www.inkscape.org/namespaces/inkscape"
   xmlns:sodipodi="http://sodipodi.sourceforge.net/DTD/sodipodi-0.dtd"
   xmlns="http://www.w3.org/2000/svg"
   xmlns:svg="http://www.w3.org/2000/svg"><sodipodi:namedview
     id="namedview363"
     pagecolor="#ffffff"
     bordercolor="#999999"
     borderopacity="1"
     inkscape:showpageshadow="0"
     inkscape:pageopacity="0"
     inkscape:pagecheckerboard="0"
     inkscape:deskcolor="#d1d1d1"
     inkscape:document-units="mm"
     showgrid="false"
     inkscape:zoom="0.72515432"
     inkscape:cx="396.46733"
     inkscape:cy="561.25984"
     inkscape:window-width="1920"
     inkscape:window-height="1017"
     inkscape:window-x="-8"
     inkscape:window-y="-8"
     inkscape:window-maximized="1"
     inkscape:current-layer="layer1" /><defs
     id="defs358" /><g
     inkscape:label="Layer 1"
     inkscape:groupmode="layer"
     id="layer1"><g
       id="g383"
       transform="matrix(0.4904221,0,0,0.4904221,-0.02252308,17.490989)">
	<polygon
   style="fill:#976ec4"
   points="239.864,157.706 323.7,28.912 254.08,165.913 338.156,93.444 265.687,177.521 402.689,107.9 273.895,191.737 382.942,171.015 278.143,207.593 431.601,215.8 278.143,224.008 382.942,260.586 273.895,239.864 402.689,323.7 265.687,254.08 338.156,338.156 254.08,265.687 323.7,402.689 239.864,273.895 260.586,382.942 224.008,278.143 215.8,431.601 207.593,278.143 171.015,382.942 191.737,273.895 107.9,402.689 177.521,265.687 93.444,338.156 165.913,254.08 28.912,323.7 157.706,239.864 48.659,260.586 153.457,224.008 0,215.8 153.457,207.593 48.659,171.015 157.706,191.737 28.912,107.9 165.913,177.521 93.444,93.444 177.521,165.913 107.9,28.912 191.737,157.706 171.015,48.659 207.593,153.457 215.8,0 224.008,153.457 260.586,48.659 "
   id="polygon365" />
	<path
   style="fill:#815fb7"
   d="m 304.467,215.8 c 0,-2.292 -0.087,-4.565 -0.258,-6.813 l -26.066,-1.394 24.72,-8.628 c -0.798,-4.149 -1.883,-8.196 -3.237,-12.117 l -25.732,4.89 21.889,-14.248 c -1.976,-4.118 -4.264,-8.057 -6.827,-11.793 l -23.269,11.825 17.088,-19.825 c -2.745,-3.161 -5.709,-6.126 -8.87,-8.871 l -19.825,17.088 11.825,-23.27 c -3.736,-2.563 -7.675,-4.851 -11.793,-6.827 l -14.248,21.889 4.89,-25.732 c -3.922,-1.354 -7.968,-2.439 -12.118,-3.237 l -8.628,24.72 -1.394,-26.066 c -2.249,-0.171 -4.521,-0.258 -6.813,-0.258 -2.292,0 -4.565,0.087 -6.813,0.258 l -1.394,26.066 -8.628,-24.72 c -4.149,0.798 -8.196,1.883 -12.118,3.237 l 4.89,25.732 -14.248,-21.889 c -4.118,1.976 -8.057,4.264 -11.793,6.827 l 11.825,23.27 -19.825,-17.088 c -3.161,2.745 -6.125,5.709 -8.87,8.871 l 17.088,19.825 -23.269,-11.825 c -2.563,3.736 -4.851,7.675 -6.827,11.793 l 21.889,14.248 -25.732,-4.89 c -1.354,3.922 -2.439,7.968 -3.237,12.117 l 24.72,8.628 -26.066,1.394 c -0.171,2.249 -0.258,4.521 -0.258,6.813 0,2.292 0.087,4.565 0.258,6.813 l 26.066,1.394 -24.72,8.628 c 0.798,4.149 1.883,8.196 3.237,12.117 l 25.732,-4.89 -21.889,14.248 c 1.976,4.118 4.264,8.057 6.827,11.793 l 23.269,-11.825 -17.088,19.825 c 2.745,3.161 5.709,6.126 8.87,8.87 l 19.825,-17.088 -11.825,23.27 c 3.736,2.563 7.675,4.851 11.793,6.827 l 14.248,-21.889 -4.89,25.732 c 3.922,1.354 7.968,2.439 12.118,3.237 l 8.628,-24.72 1.394,26.065 c 2.249,0.171 4.521,0.258 6.813,0.258 2.292,0 4.565,-0.087 6.813,-0.258 l 1.394,-26.065 8.628,24.72 c 4.149,-0.798 8.196,-1.883 12.118,-3.237 l -4.89,-25.732 14.248,21.889 c 4.118,-1.976 8.057,-4.264 11.793,-6.827 l -11.825,-23.27 19.825,17.088 c 3.161,-2.745 6.125,-5.709 8.87,-8.87 l -17.088,-19.825 23.269,11.825 c 2.563,-3.735 4.851,-7.675 6.827,-11.793 l -21.889,-14.248 25.732,4.89 c 1.354,-3.922 2.439,-7.968 3.237,-12.117 l -24.72,-8.628 26.066,-1.394 c 0.171,-2.248 0.258,-4.52 0.258,-6.813 z"
   id="path367" />
	<g
   id="g381">
		<g
   id="g373">
			<circle
   style="fill:#ffffff"
   cx="245.151"
   cy="215.8"
   r="12.173"
   id="circle369" />
			<circle
   style="fill:#4d4d4d"
   cx="245.151"
   cy="215.8"
   r="7.448"
   id="circle371" />
		</g>
		<g
   id="g379">
			<circle
   style="fill:#ffffff"
   cx="186.44901"
   cy="215.8"
   r="12.173"
   id="circle375" />
			<circle
   style="fill:#4d4d4d"
   cx="186.44901"
   cy="215.8"
   r="7.448"
   id="circle377" />
		</g>
	</g>
</g><rect
       style="fill:#4258bd;stroke-width:0.231871;fill-opacity:0.49134949"
       id="rect403"
       width="207.97298"
       height="205.78378"
       x="1.0945915"
       y="20.432434" /></g></svg>
