<?xml version="1.0" standalone="no"?>
<!DOCTYPE svg PUBLIC "-//W3C//DTD SVG 20010904//EN"
 "http://www.w3.org/TR/2001/REC-SVG-20010904/DTD/svg10.dtd">
<svg version="1.0" xmlns="http://www.w3.org/2000/svg"
 width="1280.000000pt" height="864.000000pt" viewBox="0 0 1280.000000 864.000000"
 preserveAspectRatio="xMidYMid meet">
<metadata>
Created by potrace 1.15, written by Peter Selinger 2001-2017
</metadata>
<g transform="translate(0.000000,864.000000) scale(0.100000,-0.100000)"
fill="#000000" stroke="none">
<path d="M1025 8633 c-193 -23 -496 -86 -615 -127 -25 -8 -79 -27 -120 -41
-108 -36 -195 -97 -244 -170 l-41 -60 0 -180 0 -180 52 -105 c85 -174 340
-490 561 -698 280 -262 376 -359 441 -444 36 -47 144 -182 240 -300 172 -212
174 -214 270 -408 150 -303 178 -372 196 -485 13 -81 29 -129 82 -250 l66
-150 121 -121 c112 -112 128 -124 226 -171 58 -28 129 -58 158 -68 28 -9 52
-19 52 -22 0 -4 -42 -49 -93 -102 -140 -145 -196 -217 -241 -311 -39 -82 -41
-89 -45 -200 -3 -118 8 -235 34 -350 18 -79 108 -265 166 -340 63 -83 96 -146
129 -245 51 -152 79 -284 90 -420 23 -277 44 -357 112 -431 43 -47 112 -84
157 -84 45 0 46 -15 7 -69 -46 -62 -94 -164 -101 -216 -9 -56 11 -218 36 -301
50 -162 138 -302 350 -555 107 -127 300 -389 416 -565 152 -230 338 -388 507
-430 82 -20 615 -38 706 -23 103 16 205 55 283 108 111 75 264 246 351 394
180 305 298 629 429 1182 90 377 108 462 127 590 29 192 57 369 75 465 8 47
15 102 15 122 0 20 4 48 9 62 6 13 26 143 45 288 33 245 67 441 96 548 8 31
14 39 20 30 16 -26 22 -161 12 -253 -6 -51 -16 -137 -22 -192 -6 -55 -23 -170
-37 -255 -22 -135 -25 -174 -20 -305 4 -121 10 -167 31 -237 52 -175 98 -285
149 -354 44 -58 117 -124 137 -124 19 0 111 85 143 132 43 62 109 232 143 367
21 80 24 117 24 260 0 91 -5 185 -10 208 -6 24 -19 114 -31 200 -46 356 -49
399 -39 470 5 37 10 74 10 81 0 6 3 12 8 12 17 0 83 -347 122 -650 7 -52 17
-122 22 -155 5 -33 13 -89 18 -125 6 -36 17 -103 25 -150 14 -78 38 -229 64
-405 6 -38 15 -97 20 -130 25 -163 231 -982 257 -1022 8 -12 14 -29 14 -37 0
-31 66 -208 127 -341 126 -276 229 -431 390 -586 129 -125 229 -173 408 -198
79 -11 601 3 674 18 67 14 198 86 281 157 89 75 160 159 260 309 74 111 269
381 322 445 16 19 63 76 105 125 41 50 82 101 91 115 9 14 36 49 60 78 62 77
155 270 182 377 16 61 23 121 24 185 0 83 -3 102 -27 155 -15 32 -46 83 -67
112 -22 29 -40 57 -40 62 0 6 12 13 28 17 100 22 159 62 201 136 41 71 59 157
71 335 10 157 34 278 83 433 38 120 52 149 147 290 43 63 87 133 98 156 62
122 97 306 96 504 l-1 135 -43 85 c-49 97 -84 142 -227 292 -57 59 -103 111
-103 116 0 5 33 21 73 37 39 15 115 50 169 77 81 42 110 65 184 141 84 88 164
190 164 210 0 6 23 61 50 124 39 87 53 132 60 193 11 96 35 158 178 450 104
214 115 232 232 380 68 85 156 193 195 240 39 47 86 105 104 130 42 58 177
196 376 384 193 182 278 274 404 433 144 184 168 219 224 333 l51 104 1 166
c0 154 -2 168 -23 210 -55 106 -148 167 -354 235 -142 46 -288 81 -483 116
-183 33 -497 37 -830 10 -343 -28 -577 -57 -700 -86 -307 -73 -374 -91 -525
-137 -266 -80 -477 -166 -705 -285 -244 -128 -543 -297 -671 -379 -316 -204
-593 -393 -679 -465 -55 -46 -257 -241 -450 -434 -446 -445 -614 -605 -636
-605 -26 0 -39 31 -39 94 0 67 25 137 88 248 44 78 47 87 46 155 -1 74 -4 80
-67 171 l-29 41 21 83 c18 69 80 252 146 428 51 135 161 336 245 449 176 234
473 451 617 451 23 0 61 -14 109 -40 44 -25 92 -43 122 -47 64 -7 152 18 197
58 31 27 35 37 35 78 0 40 -5 52 -32 78 -47 46 -76 53 -203 53 -147 0 -191
-12 -378 -104 -247 -121 -454 -298 -596 -511 -92 -138 -225 -408 -332 -677
-88 -225 -90 -227 -149 -193 -18 10 -59 14 -145 14 -86 0 -127 -4 -145 -14
-54 -31 -61 -24 -114 113 -100 263 -235 556 -319 696 -132 218 -381 446 -612
561 -200 98 -259 115 -403 115 -138 0 -160 -7 -211 -65 -57 -65 -39 -125 52
-172 41 -21 66 -27 122 -27 63 0 78 4 155 43 76 39 89 43 133 37 164 -19 464
-256 627 -496 129 -189 273 -521 349 -803 28 -103 27 -123 -10 -165 -80 -91
-80 -195 1 -332 42 -71 80 -172 80 -213 0 -56 -19 -107 -39 -107 -29 0 -89 57
-581 545 -452 449 -547 535 -690 632 -113 76 -525 343 -610 395 -275 169 -765
421 -966 497 -323 121 -798 243 -1094 280 -364 46 -935 74 -1095 54z"/>
</g>
</svg>
