<svg width="210" height="200" viewBox="-20 0 210 200" xmlns="http://www.w3.org/2000/svg">
  <defs>
    <radialGradient id="honeyGrad" cx="50%" cy="50%" r="70%">
      <stop offset="0%" stop-color="#e2a700" stop-opacity="0.9"/>
      <stop offset="60%" stop-color="#f7c948" stop-opacity="1"/>
      <stop offset="100%" stop-color="#fffbe6" stop-opacity="0.7"/>
    </radialGradient>
    <pattern id="waxPattern" patternUnits="userSpaceOnUse" width="12" height="12">
  <rect x="6" y="0" width="1.5" height="12" fill="#e2a700" opacity="0.12"/>
    </pattern>
  </defs>
  <!-- Premier hexagone -->
  <polygon points="50,15 79.5,32.5 79.5,67.5 50,85 20.5,67.5 20.5,32.5" fill="url(#honeyGrad)" stroke="#e2a700" stroke-width="4"/>
  <polygon points="50,15 79.5,32.5 79.5,67.5 50,85 20.5,67.5 20.5,32.5" fill="url(#waxPattern)" opacity="0.5"/>
  <!-- Deuxième hexagone -->
  <polygon points="109.5,15 139,32.5 139,67.5 109.5,85 80,67.5 80,32.5" fill="url(#honeyGrad)" stroke="#e2a700" stroke-width="4"/>
  <polygon points="109.5,15 139,32.5 139,67.5 109.5,85 80,67.5 80,32.5" fill="url(#waxPattern)" opacity="0.5"/>
  <!-- Troisième hexagone -->
  <polygon points="79.75,67.5 109.25,85 109.25,120 79.75,137.5 50.25,120 50.25,85" fill="url(#honeyGrad)" stroke="#e2a700" stroke-width="4"/>
  <polygon points="79.75,67.5 109.25,85 109.25,120 79.75,137.5 50.25,120 50.25,85" fill="url(#waxPattern)" opacity="0.5"/>
  <!-- Quatrième hexagone -->
  <polygon points="20.5,67.5 50,85 50,120 20.5,137.5 -9,120 -9,85" fill="url(#honeyGrad)" stroke="#e2a700" stroke-width="4"/>
  <polygon points="20.5,67.5 50,85 50,120 20.5,137.5 -9,120 -9,85" fill="url(#waxPattern)" opacity="0.5"/>
  <!-- Cinquième hexagone -->
  <polygon points="139,67.5 168.5,85 168.5,120 139,137.5 109.5,120 109.5,85" fill="url(#honeyGrad)" stroke="#e2a700" stroke-width="4"/>
  <polygon points="139,67.5 168.5,85 168.5,120 139,137.5 109.5,120 109.5,85" fill="url(#waxPattern)" opacity="0.5"/>
    <!-- Sixième hexagone -->
  <polygon points="50,120 79.5,137.5 79.5,172.5 50,190 20.5,172.5 20.5,137.5" fill="url(#honeyGrad)" stroke="#e2a700" stroke-width="4"/>
  <polygon points="50,120 79.5,137.5 79.5,172.5 50,190 20.5,172.5 20.5,137.5" fill="url(#waxPattern)" opacity="0.5"/>
    <!-- Septième hexagone -->
  <polygon points="109.5,120 139,137.5 139,172.5 109.5,190 80,172.5 80,137.5" fill="url(#honeyGrad)" stroke="#e2a700" stroke-width="4"/>
  <polygon points="109.5,120 139,137.5 139,172.5 109.5,190 80,172.5 80,137.5" fill="url(#waxPattern)" opacity="0.5"/>
</svg>
